<svg width="22" height="12" viewBox="0 0 22 12" fill="none" xmlns="http://www.w3.org/2000/svg">
    <path d="M10.9999 10.9999C10.6494 11.0006 10.3098 10.8785 10.0399 10.6549L1.03993 3.15493C0.7336 2.90032 0.540964 2.53445 0.504394 2.13781C0.467825 1.74117 0.590317 1.34625 0.844925 1.03992C1.09953 0.7336 1.4654 0.540964 1.86204 0.504394C2.25868 0.467825 2.6536 0.590317 2.95992 0.844924L10.9999 7.56492L19.0399 1.08493C19.1934 0.960327 19.3699 0.867279 19.5594 0.811132C19.7489 0.754984 19.9477 0.736843 20.1442 0.757752C20.3407 0.778661 20.5312 0.838206 20.7047 0.932967C20.8781 1.02773 21.0311 1.15584 21.1549 1.30993C21.2923 1.46416 21.3963 1.6451 21.4605 1.84141C21.5247 2.03772 21.5477 2.24517 21.528 2.45076C21.5082 2.65636 21.4463 2.85567 21.346 3.0362C21.2456 3.21674 21.1091 3.37461 20.9449 3.49992L11.9449 10.7449C11.6673 10.9332 11.3346 11.023 10.9999 10.9999Z" fill="#F69F4E"/>
</svg>
