<svg viewBox="0 0 23 26" fill="none" xmlns="http://www.w3.org/2000/svg">
    <path fill-rule="evenodd" clip-rule="evenodd" d="M0 6.5V19.5C0 20.3938 0.739286 21.125 1.64286 21.125H21.3571C22.2607 21.125 23 20.3938 23 19.5V6.5C23 5.60625 22.2607 4.875 21.3571 4.875H1.64286C0.739286 4.875 0 5.60625 0 6.5ZM21.3571 6.5L11.5 14.625L1.64286 6.5H21.3571ZM1.64286 8.9375L8.21429 13.8125L1.64286 18.6875V8.9375ZM3.28571 19.5L9.03571 14.625L11.5 17.0625L13.9643 14.625L19.7143 19.5H3.28571ZM21.3571 18.6875L14.7857 13.8125L21.3571 8.9375V18.6875Z" fill="#2691D8"/>
</svg>
