<svg viewBox="0 0 352 191" fill="none" xmlns="http://www.w3.org/2000/svg">
    <path fill-rule="evenodd" clip-rule="evenodd" d="M320.765 65.6844C320.765 65.8501 320.783 66.0115 320.817 66.1671C319.869 66.2119 319.115 66.994 319.115 67.9523C319.115 68.9393 319.915 69.7395 320.902 69.7395C320.978 69.7395 321.052 69.7349 321.124 69.7259C321.069 69.9277 321.04 70.14 321.04 70.3592C321.04 71.6879 322.117 72.7651 323.446 72.7651C324.112 72.7651 324.715 72.4944 325.151 72.0571C325.216 72.0504 325.281 72.042 325.345 72.0321C325.662 72.3165 326.08 72.4895 326.539 72.4895C327.324 72.4895 327.991 71.9837 328.231 71.2802C329.242 70.969 329.976 70.0277 329.976 68.9149C329.976 68.1234 329.605 67.4187 329.026 66.9658C329.107 66.7138 329.151 66.4451 329.151 66.1662C329.151 64.7235 327.981 63.5541 326.539 63.5541C325.861 63.5541 325.243 63.8123 324.779 64.2357C324.363 63.7349 323.736 63.416 323.034 63.416C321.781 63.416 320.765 64.4316 320.765 65.6844Z" fill="url(#paint0_linear_mobile)"/>
    <path d="M324.752 70.9775H325.302L325.577 76.3392H324.477L324.752 70.9775Z" fill="#805F5A"/>
    <path fill-rule="evenodd" clip-rule="evenodd" d="M326.101 51.0256C326.101 51.3615 326.137 51.6889 326.205 52.0043C324.287 52.095 322.759 53.6793 322.759 55.6204C322.759 57.6198 324.38 59.2407 326.379 59.2407C326.531 59.2407 326.681 59.2313 326.828 59.2131C326.717 59.6214 326.658 60.0509 326.658 60.4942C326.658 63.1857 328.84 65.3676 331.531 65.3676C332.88 65.3676 334.101 64.8197 334.983 63.9342C335.116 63.9206 335.247 63.9037 335.377 63.8836C336.018 64.4602 336.867 64.8111 337.797 64.8111C339.387 64.8111 340.737 63.7862 341.224 62.3611C343.271 61.7305 344.759 59.8239 344.759 57.5698C344.759 55.9664 344.006 54.5389 342.835 53.6213C342.999 53.1103 343.088 52.5654 343.088 51.9998C343.088 49.0776 340.719 46.7087 337.797 46.7087C336.423 46.7087 335.172 47.2321 334.231 48.0904C333.388 47.0763 332.118 46.4307 330.696 46.4307C328.158 46.4307 326.101 48.4879 326.101 51.0256Z" fill="url(#paint1_linear_mobile)"/>
    <path d="M334.177 61.7471H335.291L335.848 72.6078H333.62L334.177 61.7471Z" fill="#805F5A"/>
    <path fill-rule="evenodd" clip-rule="evenodd" d="M239.553 58.3335C238.53 58.3335 237.598 58.7233 236.898 59.3624C236.27 58.607 235.323 58.126 234.264 58.126C232.375 58.126 230.843 59.658 230.843 61.5477C230.843 61.7979 230.87 62.0417 230.92 62.2766C229.492 62.3443 228.354 63.524 228.354 64.9695C228.354 66.4584 229.561 67.6654 231.05 67.6654C231.163 67.6654 231.275 67.6584 231.384 67.6449C231.302 67.9489 231.258 68.2689 231.258 68.5991C231.258 70.6034 232.882 72.2283 234.887 72.2283C235.891 72.2283 236.801 71.8201 237.458 71.1605C237.556 71.1504 237.654 71.1378 237.751 71.1228C238.229 71.5519 238.86 71.8129 239.553 71.8129C240.736 71.8129 241.742 71.0498 242.105 69.9886C243.629 69.5191 244.737 68.0992 244.737 66.4205C244.737 65.2267 244.177 64.1638 243.305 63.4805C243.427 63.1002 243.493 62.6947 243.493 62.2738C243.493 60.0976 241.729 58.3335 239.553 58.3335Z" fill="url(#paint2_linear_mobile)"/>
    <path d="M236.857 69.5312H237.686L238.101 77.6191H236.442L236.857 69.5312Z" fill="#805F5A"/>
    <circle opacity="0.3" cx="330.975" cy="21.7841" r="21.0253" fill="#FFBC57"/>
    <circle opacity="0.3" cx="330.975" cy="21.7839" r="8.77215" fill="#FFBC57"/>
    <circle opacity="0.3" cx="330.975" cy="21.7848" r="17.1266" fill="#FFBC57"/>
    <rect x="241.443" y="23.873" width="86.6076" height="47.3418" fill="url(#paint3_linear_mobile)"/>
    <rect x="241.443" y="23.873" width="86.6076" height="3.06329" fill="#FFA552"/>
    <rect x="241.443" y="26.9355" width="86.6076" height="1.11392" fill="#C6D1E1"/>
    <rect x="248.626" y="34.1201" width="11.5316" height="21.557" fill="url(#paint4_linear_mobile)" stroke="#B5C2DB"/>
    <rect x="280.652" y="34.1201" width="11.5316" height="21.557" fill="url(#paint5_linear_mobile)" stroke="#B5C2DB"/>
    <rect x="310.449" y="34.1201" width="11.5316" height="21.557" fill="url(#paint6_linear_mobile)" stroke="#B5C2DB"/>
    <rect x="265.056" y="34.1201" width="6.79747" height="6.79747" fill="url(#paint7_linear_mobile)" stroke="#B5C2DB"/>
    <rect x="265.056" y="48.8789" width="6.79747" height="6.79747" fill="url(#paint8_linear_mobile)" stroke="#B5C2DB"/>
    <rect x="297.082" y="34.1201" width="6.79747" height="6.79747" fill="url(#paint9_linear_mobile)" stroke="#B5C2DB"/>
    <rect x="297.082" y="48.8789" width="6.79747" height="6.79747" fill="url(#paint10_linear_mobile)" stroke="#B5C2DB"/>
    <path fill-rule="evenodd" clip-rule="evenodd" d="M225.291 51.8606C225.291 52.1964 225.327 52.5239 225.396 52.8392C223.477 52.93 221.949 54.5143 221.949 56.4554C221.949 58.4548 223.57 60.0756 225.569 60.0756C225.721 60.0756 225.871 60.0663 226.018 60.0481C225.907 60.4563 225.848 60.8858 225.848 61.3292C225.848 64.0207 228.03 66.2026 230.722 66.2026C232.07 66.2026 233.291 65.6546 234.174 64.7691C234.306 64.7555 234.437 64.7386 234.567 64.7185C235.209 65.2952 236.057 65.6461 236.987 65.6461C238.577 65.6461 239.928 64.6212 240.414 63.1961C242.461 62.5655 243.949 60.6589 243.949 58.4047C243.949 56.8015 243.197 55.374 242.025 54.4564C242.19 53.9454 242.278 53.4005 242.278 52.8348C242.278 49.9126 239.909 47.5436 236.987 47.5436C235.614 47.5436 234.362 48.0671 233.422 48.9255C232.579 47.9113 231.308 47.2656 229.886 47.2656C227.348 47.2656 225.291 49.3228 225.291 51.8606Z" fill="url(#paint11_linear_mobile)"/>
    <path d="M233.367 62.582H234.481L235.038 73.4428H232.81L233.367 62.582Z" fill="#805F5A"/>
    <path fill-rule="evenodd" clip-rule="evenodd" d="M240.865 70.9764C240.865 71.142 240.882 71.3035 240.916 71.4591C239.969 71.5039 239.215 72.286 239.215 73.2443C239.215 74.2313 240.015 75.0315 241.002 75.0315C241.077 75.0315 241.151 75.0269 241.224 75.0179C241.169 75.2197 241.14 75.432 241.14 75.6512C241.14 76.9799 242.217 78.0571 243.545 78.0571C244.211 78.0571 244.814 77.7864 245.25 77.3491C245.315 77.3424 245.38 77.334 245.444 77.3241C245.761 77.6085 246.179 77.7815 246.638 77.7815C247.423 77.7815 248.09 77.2757 248.33 76.5722C249.341 76.2609 250.075 75.3197 250.075 74.2069C250.075 73.4154 249.704 72.7107 249.126 72.2578C249.207 72.0058 249.25 71.7371 249.25 71.4582C249.25 70.0155 248.081 68.8461 246.638 68.8461C245.96 68.8461 245.343 69.1043 244.879 69.5277C244.462 69.0269 243.835 68.708 243.133 68.708C241.88 68.708 240.865 69.7236 240.865 70.9764Z" fill="url(#paint12_linear_mobile)"/>
    <path d="M244.851 76.2695H245.401L245.676 81.6312H244.576L244.851 76.2695Z" fill="#805F5A"/>
    <path fill-rule="evenodd" clip-rule="evenodd" d="M253.855 62.1058C253.177 62.1058 252.56 62.3641 252.096 62.7875C251.68 62.2867 251.052 61.9678 250.35 61.9678C249.097 61.9678 248.082 62.9834 248.082 64.2362C248.082 64.4018 248.099 64.5633 248.133 64.7189C247.186 64.7636 246.432 65.5458 246.432 66.5041C246.432 67.4911 247.232 68.2913 248.219 68.2913C248.294 68.2913 248.368 68.2866 248.441 68.2777C248.386 68.4794 248.356 68.6918 248.356 68.911C248.356 70.2397 249.433 71.3168 250.762 71.3168C251.428 71.3168 252.031 71.0462 252.467 70.6089C252.532 70.6022 252.597 70.5938 252.661 70.5838C252.978 70.8682 253.397 71.0413 253.856 71.0413C254.64 71.0413 255.307 70.5354 255.547 69.832C256.558 69.5207 257.292 68.5795 257.292 67.4666C257.292 66.6752 256.921 65.9705 256.343 65.5175C256.424 65.2655 256.467 64.9968 256.467 64.7179C256.467 63.2753 255.298 62.1058 253.855 62.1058Z" fill="url(#paint13_linear_mobile)"/>
    <path d="M252.068 69.5293H252.618L252.893 74.8909H251.793L252.068 69.5293Z" fill="#805F5A"/>
    <path fill-rule="evenodd" clip-rule="evenodd" d="M308.26 63.2186C308.26 63.4688 308.287 63.7126 308.338 63.9475C306.909 64.0152 305.772 65.1949 305.772 66.6403C305.772 68.1293 306.979 69.3363 308.468 69.3363C308.581 69.3363 308.692 69.3293 308.802 69.3158C308.719 69.6198 308.675 69.9398 308.675 70.27C308.675 72.2743 310.3 73.8992 312.304 73.8992C313.309 73.8992 314.218 73.491 314.875 72.8314C314.974 72.8213 315.072 72.8087 315.169 72.7937C315.646 73.2228 316.278 73.4838 316.97 73.4838C318.154 73.4838 319.16 72.7207 319.522 71.6595C321.047 71.19 322.155 69.7701 322.155 68.0914C322.155 66.8977 321.594 65.8348 320.722 65.1515C320.845 64.7712 320.911 64.3656 320.911 63.9447C320.911 61.7685 319.146 60.0044 316.97 60.0044C315.947 60.0044 315.016 60.3942 314.315 61.0334C313.687 60.2779 312.741 59.7969 311.682 59.7969C309.792 59.7969 308.26 61.3289 308.26 63.2186Z" fill="url(#paint14_linear_mobile)"/>
    <path d="M314.274 71.2021H315.104L315.518 79.2899H313.859L314.274 71.2021Z" fill="#805F5A"/>
    <path fill-rule="evenodd" clip-rule="evenodd" d="M340.297 57.193C339.408 57.193 338.597 57.532 337.988 58.0879C337.442 57.431 336.619 57.0127 335.698 57.0127C334.054 57.0127 332.722 58.3452 332.722 59.9889C332.722 60.2065 332.745 60.4186 332.789 60.6228C331.547 60.6816 330.557 61.7078 330.557 62.9651C330.557 64.2602 331.607 65.31 332.902 65.31C333.001 65.31 333.098 65.304 333.193 65.2922C333.121 65.5566 333.083 65.8348 333.083 66.122C333.083 67.8654 334.496 69.2787 336.239 69.2787C337.113 69.2787 337.904 68.9234 338.476 68.3494C338.561 68.3406 338.646 68.3297 338.73 68.3167C339.146 68.6903 339.695 68.9175 340.298 68.9175C341.327 68.9175 342.202 68.254 342.517 67.3312C343.843 66.9227 344.807 65.6878 344.807 64.2277C344.807 63.1892 344.319 62.2646 343.561 61.6703C343.667 61.3394 343.725 60.9865 343.725 60.6202C343.725 58.7274 342.19 57.193 340.297 57.193Z" fill="url(#paint15_linear_mobile)"/>
    <path d="M337.953 66.9336H338.674L339.035 73.9684H337.592L337.953 66.9336Z" fill="#805F5A"/>
    <g clip-path="url(#clip0)">
        <path d="M303.729 71.5272H271.565V57.2318L287.647 42.043L303.729 57.2318V71.5272Z" fill="url(#paint16_linear_mobile)"/>
        <path d="M301.049 55.4452L296.582 50.9779V44.7236H301.049V55.4452Z" fill="#811918"/>
        <path d="M271.565 71.5273H303.729V75.9947H271.565V71.5273Z" fill="url(#paint17_linear_mobile)"/>
        <path d="M287.647 40.5244L269.778 57.1428L271.565 59.1084L287.647 44.1876L303.729 59.1084L305.516 57.1428L287.647 40.5244Z" fill="#BB4442"/>
        <path d="M287.647 44.1445L271.449 59.092L287.647 47.8077L303.845 59.092L287.647 44.1445Z" fill="#F9CC86"/>
        <path d="M282.286 61.6992H293.008V75.9946H282.286V61.6992Z" fill="#A85C30"/>
        <path d="M282.286 61.6992L288.962 65.7451V80.0404L282.286 75.9946V61.6992Z" fill="url(#paint18_linear_mobile)"/>
        <path d="M285.467 52.3711H289.827V56.7319H285.467V52.3711Z" fill="url(#paint19_linear_mobile)" stroke="#F5A66C"/>
        <path d="M287.133 70.0186C286.865 70.0186 286.686 70.1972 286.686 70.4653V72.2522C286.686 72.5202 286.865 72.6989 287.133 72.6989C287.401 72.6989 287.579 72.5202 287.579 72.2522V70.4653C287.579 70.1972 287.401 70.0186 287.133 70.0186Z" fill="#BB4442"/>
    </g>
    <path fill-rule="evenodd" clip-rule="evenodd" d="M255.343 60.7717C255.343 61.1076 255.379 61.435 255.448 61.7504C253.529 61.8411 252.001 63.4254 252.001 65.3665C252.001 67.3659 253.622 68.9868 255.621 68.9868C255.773 68.9868 255.923 68.9774 256.07 68.9592C255.959 69.3674 255.9 69.797 255.9 70.2403C255.9 72.9318 258.082 75.1137 260.774 75.1137C262.122 75.1137 263.343 74.5658 264.226 73.6803C264.358 73.6667 264.489 73.6498 264.619 73.6297C265.261 74.2063 266.109 74.5572 267.039 74.5572C268.629 74.5572 269.98 73.5323 270.466 72.1072C272.513 71.4766 274.001 69.57 274.001 67.3159C274.001 65.7125 273.248 64.285 272.077 63.3674C272.241 62.8564 272.33 62.3115 272.33 61.7459C272.33 58.8237 269.961 56.4548 267.039 56.4548C265.665 56.4548 264.414 56.9782 263.473 57.8365C262.631 56.8224 261.36 56.1768 259.938 56.1768C257.4 56.1768 255.343 58.234 255.343 60.7717Z" fill="url(#paint20_linear_mobile)"/>
    <path d="M263.419 71.4932H264.533L265.09 82.3539H262.862L263.419 71.4932Z" fill="#805F5A"/>
    <path d="M288.506 86.5312C288.506 86.5312 282.38 107.696 227.797 140.696C173.215 173.696 102.063 188.595 102.063 188.595" stroke="#FED699" stroke-width="4" stroke-linecap="round" stroke-linejoin="round" stroke-dasharray="2 42"/>
    <rect x="64.115" y="80.6191" width="29.5896" height="24.0852" transform="rotate(-24.2367 64.115 80.6191)" fill="url(#paint21_radial)"/>
    <rect x="64.115" y="80.6191" width="29.5896" height="3.16796" transform="rotate(-24.2367 64.115 80.6191)" fill="url(#paint22_radial)"/>
    <g clip-path="url(#clip1)">
        <path fill-rule="evenodd" clip-rule="evenodd" d="M53.8712 71.6731C55.6535 74.9888 55.4417 83.3994 53.1382 83.992C52.2195 84.2284 50.2626 83.6495 48.2708 82.4513L49.5209 91.2787H42.1389L44.68 79.4567C43.2628 77.7963 42.3037 75.7616 42.464 73.4817C42.9258 66.9121 52.0888 68.3573 53.8712 71.6731Z" fill="#ECB493"/>
        <path fill-rule="evenodd" clip-rule="evenodd" d="M50.9553 68.0621C49.9466 67.7552 48.4823 67.6511 47.8663 67.7215C48.2167 66.8836 48.3558 65.9501 48.2424 65.0412C48.1323 64.158 47.7368 63.406 47.3711 62.618C47.2026 62.2548 47.0115 61.8935 46.7267 61.6157C46.4366 61.3326 46.0693 61.1458 45.6842 61.0567C45.29 60.9654 44.8779 60.973 44.4832 61.0558C44.3086 61.0925 44.1519 61.1721 43.9806 61.2164C43.8053 61.2618 43.7202 61.1523 43.5929 61.0422C43.2861 60.7769 42.8364 60.6459 42.4483 60.5991C42.0129 60.5465 41.5611 60.6121 41.1458 60.7549C40.7416 60.894 40.3533 61.1198 40.0611 61.4488C39.931 61.5953 39.8128 61.762 39.7361 61.946C39.7046 62.0215 39.6994 62.0663 39.6239 62.0939C39.554 62.1195 39.4724 62.1203 39.4003 62.1447C38.7034 62.3802 38.1075 62.9177 37.783 63.6077C37.5937 64.0103 37.5041 64.7191 37.5286 65.5135C37.5532 66.3079 38.2719 68.3808 38.9442 69.1369C39.5442 69.8118 40.4262 70.2571 41.2774 70.4521C40.7124 71.0966 40.3363 71.902 40.0582 72.7211C39.7561 73.6108 39.5692 74.5353 39.5001 75.4773C39.4345 76.3722 39.4285 77.3187 39.6387 78.1945C39.8354 79.0136 40.2559 79.6855 40.958 80.1118C41.2796 80.3071 41.6256 80.4538 41.9736 80.5879C42.3166 80.72 42.6606 80.8484 43.0199 80.9226C43.6999 81.0628 44.4833 81.0388 45.0071 80.4986C45.1959 80.3039 45.4035 80.0592 45.5412 79.8213C45.5907 79.7358 45.6206 79.6798 45.5604 79.5962C45.4884 79.496 45.3718 79.4193 45.2792 79.341C44.7512 78.8943 44.4244 78.2979 44.342 77.5893C44.2584 76.8702 44.4519 75.9421 45.1524 75.6283C46.017 75.2409 46.9693 75.6856 47.7378 76.1C48.0644 74.9495 48.735 73.9136 49.7864 73.3859C50.9497 72.8021 52.2845 72.7338 53.4798 72.2328C53.7913 72.1023 54.1086 71.9541 54.338 71.6881C54.4338 71.577 54.5462 71.4328 54.5845 71.2858C54.6348 71.0926 54.51 70.9307 54.4136 70.7802C53.9024 69.9819 51.964 68.3691 50.9553 68.0621Z" fill="#191847"/>
        <path fill-rule="evenodd" clip-rule="evenodd" d="M40.2932 116.759L63.1486 154.894L80.2836 187.134H83.9743L55.2644 116.759L40.2932 116.759Z" fill="#F7A677"/>
        <path fill-rule="evenodd" clip-rule="evenodd" d="M78.0269 185.646C77.6828 186.562 77.5107 187.248 77.5107 187.704C77.5107 188.257 77.6031 189.065 77.7879 190.127C78.4314 190.127 84.2141 190.127 95.1362 190.127C95.587 188.639 95.3267 187.836 94.3554 187.718C93.3842 187.599 92.5773 187.492 91.9348 187.397L83.8715 183.809C83.7164 183.74 83.5345 183.809 83.4654 183.964C83.4642 183.967 83.463 183.97 83.4619 183.972L82.9436 185.227C82.0445 185.646 81.3138 185.855 80.7516 185.855C80.2949 185.855 79.6641 185.671 78.8593 185.303L78.8593 185.303C78.5505 185.162 78.1853 185.297 78.0438 185.605C78.0377 185.618 78.032 185.632 78.0269 185.646Z" fill="#E4E4E4"/>
        <path fill-rule="evenodd" clip-rule="evenodd" d="M75.5249 181.971L82.6424 179.823C79.524 170.519 75.702 160.28 71.1764 149.107C66.6508 137.933 61.7904 127.151 56.5953 116.759H36.4929C42.2687 129.904 48.3919 141.848 54.8624 152.591C61.3328 163.334 68.2204 173.128 75.5249 181.971Z" fill="url(#paint23_linear_mobile)"/>
        <path fill-rule="evenodd" clip-rule="evenodd" d="M38.7912 116.759C36.6341 130.16 32.4736 147.281 32.081 147.809C31.8192 148.162 22.3958 151.313 3.81079 157.264L4.60803 160.512C26.7706 157.321 38.4484 154.845 39.6414 153.084C41.4309 150.443 50.3661 129.579 53.8269 116.759H38.7912Z" fill="#ECB493"/>
        <path fill-rule="evenodd" clip-rule="evenodd" d="M10.344 154.456L11.7482 159.687C28.3246 161.138 38.4813 160.09 42.2183 156.542C45.9553 152.994 50.2145 139.733 54.9957 116.759H35.8268C32.7976 135.572 31.104 145.373 30.7462 146.163C30.3883 146.953 23.5876 149.717 10.344 154.456Z" fill="url(#paint24_linear_mobile)"/>
        <path fill-rule="evenodd" clip-rule="evenodd" d="M4.71828 155.91C3.75437 155.731 3.04799 155.681 2.59915 155.76C2.05325 155.856 1.27271 156.087 0.257531 156.452C0.369402 157.085 1.37481 162.769 3.27374 173.505C4.81897 173.691 5.56564 173.296 5.51372 172.32C5.46181 171.345 5.42713 170.533 5.40969 169.885L7.54567 161.337C7.58677 161.173 7.48655 161.006 7.32182 160.965C7.319 160.964 7.31617 160.964 7.31333 160.963L5.9858 160.671C5.41657 159.86 5.08308 159.178 4.98534 158.625C4.90593 158.176 4.97781 157.524 5.20099 156.669L5.201 156.669C5.28664 156.341 5.08971 156.006 4.76112 155.92C4.74696 155.916 4.73267 155.913 4.71828 155.91Z" fill="#E4E4E4"/>
        <path fill-rule="evenodd" clip-rule="evenodd" d="M80.4505 98.7716C81.7831 98.4978 85.0359 96.0834 85.5963 96.5736C86.4255 97.2988 85.6862 99.5258 84.8151 100.634C83.1869 102.704 81.8389 103.412 78.5071 104.339C76.7651 104.824 74.8816 105.796 72.8568 107.254L72.5897 102.557L77.2793 99.9862C77.9373 97.4873 78.7239 96.23 79.639 96.2143C80.3421 95.8879 79.1178 99.0455 80.4505 98.7716ZM72.379 88.0684C71.5179 89.5937 70.6809 91.2368 71.1196 91.7067C71.5583 92.1767 72.6522 91.5202 73.1755 92.301C73.5244 92.8215 71.6556 93.6438 67.5689 94.7678L59.8114 101.857L55.8689 97.6335L66.545 91.7977C68.3204 89.6935 70.0697 88.0594 71.7928 86.8952C72.3193 86.6758 73.2401 86.543 72.379 88.0684Z" fill="#ECB493"/>
        <path fill-rule="evenodd" clip-rule="evenodd" d="M50.6695 96.3332C54.409 96.2938 59.3956 95.5055 64.7163 92.1348L66.8059 96.7855C63.1358 100.421 57.9752 103.407 53.463 103.281C49.907 103.181 48.0897 98.8885 50.6695 96.3332Z" fill="#BC3D3D"/>
        <path fill-rule="evenodd" clip-rule="evenodd" d="M50.9184 84.5254C51.3893 90.5633 53.7594 97.2176 55.7045 103.792C59.6743 104.78 66.3317 103.615 75.6765 100.296C77.9943 105.082 79.0658 108.494 78.891 110.532C70.8736 114.712 64.0021 116.575 58.3412 116.697C58.5234 120.048 58.1146 123.239 56.741 126.154C53.9177 132.145 37.3852 126.596 31.8265 127.689C28.3454 116.406 35.0761 111.82 35.0815 104.601C35.0875 96.6947 41.4482 84.5254 42.384 84.5254H50.9184Z" fill="url(#paint25_linear_mobile)"/>
    </g>
    <defs>
        <linearGradient id="paint0_linear_mobile" x1="324.546" y1="63.416" x2="324.546" y2="72.7651" gradientUnits="userSpaceOnUse">
            <stop stop-color="#A0D16E"/>
            <stop offset="1" stop-color="#5CBC71"/>
        </linearGradient>
        <linearGradient id="paint1_linear_mobile" x1="333.759" y1="46.4307" x2="333.759" y2="65.3676" gradientUnits="userSpaceOnUse">
            <stop stop-color="#A0D16E"/>
            <stop offset="1" stop-color="#5CBC71"/>
        </linearGradient>
        <linearGradient id="paint2_linear_mobile" x1="236.546" y1="58.126" x2="236.546" y2="72.2283" gradientUnits="userSpaceOnUse">
            <stop stop-color="#B7E489"/>
            <stop offset="1" stop-color="#89E4A3"/>
        </linearGradient>
        <linearGradient id="paint3_linear_mobile" x1="284.747" y1="23.873" x2="284.747" y2="71.2148" gradientUnits="userSpaceOnUse">
            <stop stop-color="#E4EDF9"/>
            <stop offset="1" stop-color="#B9C3DC"/>
        </linearGradient>
        <linearGradient id="paint4_linear_mobile" x1="254.392" y1="33.6201" x2="254.392" y2="56.1771" gradientUnits="userSpaceOnUse">
            <stop stop-color="#F9FCFF"/>
            <stop offset="1" stop-color="#E5F1F9"/>
        </linearGradient>
        <linearGradient id="paint5_linear_mobile" x1="286.417" y1="33.6201" x2="286.417" y2="56.1771" gradientUnits="userSpaceOnUse">
            <stop stop-color="#F9FCFF"/>
            <stop offset="1" stop-color="#E5F1F9"/>
        </linearGradient>
        <linearGradient id="paint6_linear_mobile" x1="316.215" y1="33.6201" x2="316.215" y2="56.1771" gradientUnits="userSpaceOnUse">
            <stop stop-color="#F9FCFF"/>
            <stop offset="1" stop-color="#E5F1F9"/>
        </linearGradient>
        <linearGradient id="paint7_linear_mobile" x1="268.455" y1="33.6201" x2="268.455" y2="41.4176" gradientUnits="userSpaceOnUse">
            <stop stop-color="#F9FCFF"/>
            <stop offset="1" stop-color="#E5F1F9"/>
        </linearGradient>
        <linearGradient id="paint8_linear_mobile" x1="268.455" y1="48.3789" x2="268.455" y2="56.1764" gradientUnits="userSpaceOnUse">
            <stop stop-color="#F9FCFF"/>
            <stop offset="1" stop-color="#E5F1F9"/>
        </linearGradient>
        <linearGradient id="paint9_linear_mobile" x1="300.481" y1="33.6201" x2="300.481" y2="41.4176" gradientUnits="userSpaceOnUse">
            <stop stop-color="#F9FCFF"/>
            <stop offset="1" stop-color="#E5F1F9"/>
        </linearGradient>
        <linearGradient id="paint10_linear_mobile" x1="300.481" y1="48.3789" x2="300.481" y2="56.1764" gradientUnits="userSpaceOnUse">
            <stop stop-color="#F9FCFF"/>
            <stop offset="1" stop-color="#E5F1F9"/>
        </linearGradient>
        <linearGradient id="paint11_linear_mobile" x1="232.949" y1="47.2656" x2="232.949" y2="66.2026" gradientUnits="userSpaceOnUse">
            <stop stop-color="#A0D16E"/>
            <stop offset="1" stop-color="#5CBC71"/>
        </linearGradient>
        <linearGradient id="paint12_linear_mobile" x1="244.645" y1="68.708" x2="244.645" y2="78.0571" gradientUnits="userSpaceOnUse">
            <stop stop-color="#A0D16E"/>
            <stop offset="1" stop-color="#5CBC71"/>
        </linearGradient>
        <linearGradient id="paint13_linear_mobile" x1="251.862" y1="61.9678" x2="251.862" y2="71.3168" gradientUnits="userSpaceOnUse">
            <stop stop-color="#A0D16E"/>
            <stop offset="1" stop-color="#5CBC71"/>
        </linearGradient>
        <linearGradient id="paint14_linear_mobile" x1="313.963" y1="59.7969" x2="313.963" y2="73.8992" gradientUnits="userSpaceOnUse">
            <stop stop-color="#B7E489"/>
            <stop offset="1" stop-color="#89E4A3"/>
        </linearGradient>
        <linearGradient id="paint15_linear_mobile" x1="337.682" y1="57.0127" x2="337.682" y2="69.2787" gradientUnits="userSpaceOnUse">
            <stop stop-color="#B7E489"/>
            <stop offset="1" stop-color="#89E4A3"/>
        </linearGradient>
        <linearGradient id="paint16_linear_mobile" x1="287.671" y1="41.9733" x2="286.417" y2="69.9607" gradientUnits="userSpaceOnUse">
            <stop stop-color="#F2B65C"/>
            <stop offset="0.471634" stop-color="#FFDFAF"/>
            <stop offset="1" stop-color="#FFE3B8"/>
        </linearGradient>
        <linearGradient id="paint17_linear_mobile" x1="287.647" y1="71.5273" x2="287.647" y2="75.9947" gradientUnits="userSpaceOnUse">
            <stop stop-color="#FFCBA6"/>
            <stop offset="1" stop-color="#FFE5C7"/>
        </linearGradient>
        <linearGradient id="paint18_linear_mobile" x1="285.624" y1="61.6992" x2="285.624" y2="80.0404" gradientUnits="userSpaceOnUse">
            <stop stop-color="#ECA553"/>
            <stop offset="1" stop-color="#EC8153"/>
        </linearGradient>
        <linearGradient id="paint19_linear_mobile" x1="287.647" y1="51.8711" x2="287.647" y2="57.2319" gradientUnits="userSpaceOnUse">
            <stop stop-color="#F9FCFF"/>
            <stop offset="1" stop-color="#E5F1F9"/>
        </linearGradient>
        <linearGradient id="paint20_linear_mobile" x1="263.001" y1="56.1768" x2="263.001" y2="75.1137" gradientUnits="userSpaceOnUse">
            <stop stop-color="#B7E489"/>
            <stop offset="1" stop-color="#89E4A3"/>
        </linearGradient>
        <linearGradient id="paint23_linear_mobile" x1="59.5677" y1="116.759" x2="59.5677" y2="181.971" gradientUnits="userSpaceOnUse">
            <stop stop-color="#9DC8E6"/>
            <stop offset="1" stop-color="#C3E0F3"/>
        </linearGradient>
        <linearGradient id="paint24_linear_mobile" x1="37.8117" y1="116.806" x2="10.1928" y2="160.207" gradientUnits="userSpaceOnUse">
            <stop stop-color="#BBE4FF"/>
            <stop offset="1" stop-color="#E5F1F9"/>
        </linearGradient>
        <linearGradient id="paint25_linear_mobile" x1="54.8683" y1="84.5254" x2="54.8683" y2="128.986" gradientUnits="userSpaceOnUse">
            <stop stop-color="#FD6D6D"/>
            <stop offset="1" stop-color="#DE5959"/>
        </linearGradient>
        <radialGradient id="paint21_radial" cx="0" cy="0" r="1" gradientUnits="userSpaceOnUse" gradientTransform="translate(84.9302 81.4269) rotate(104.501) scale(24.0434 29.1853)">
            <stop stop-color="#FFD0A4"/>
            <stop offset="1" stop-color="#F69F4E"/>
        </radialGradient>
        <radialGradient id="paint22_radial" cx="0" cy="0" r="1" gradientUnits="userSpaceOnUse" gradientTransform="translate(78.4398 78.4346) rotate(84.9825) scale(5.37312 23.1733)">
            <stop stop-color="#FFBFA4"/>
            <stop offset="1" stop-color="#F68A4E"/>
        </radialGradient>
        <clipPath id="clip0">
            <rect x="266.204" y="36.6826" width="42.8861" height="42.8861" fill="white"/>
        </clipPath>
        <clipPath id="clip1">
            <rect y="60.5811" width="95.3508" height="129.546" fill="white"/>
        </clipPath>
    </defs>
</svg>
