<svg width="1264" height="681" viewBox="0 0 1264 681" fill="none" xmlns="http://www.w3.org/2000/svg">
    <path fill-rule="evenodd" clip-rule="evenodd" d="M1151.84 233.146C1151.84 233.741 1151.9 234.322 1152.02 234.881C1148.62 235.042 1145.92 237.85 1145.92 241.291C1145.92 244.836 1148.79 247.709 1152.33 247.709C1152.6 247.709 1152.87 247.692 1153.13 247.66C1152.93 248.384 1152.83 249.145 1152.83 249.931C1152.83 254.702 1156.69 258.57 1161.47 258.57C1163.86 258.57 1166.02 257.598 1167.59 256.028C1167.82 256.004 1168.05 255.974 1168.28 255.939C1169.42 256.96 1170.92 257.582 1172.57 257.582C1175.39 257.582 1177.78 255.766 1178.65 253.241C1182.28 252.123 1184.92 248.743 1184.92 244.747C1184.92 241.905 1183.58 239.374 1181.5 237.748C1181.8 236.842 1181.95 235.876 1181.95 234.873C1181.95 229.693 1177.75 225.494 1172.57 225.494C1170.14 225.494 1167.92 226.422 1166.25 227.943C1164.76 226.145 1162.51 225 1159.98 225C1155.49 225 1151.84 228.647 1151.84 233.146Z" fill="url(#paint0_linear)"/>
    <path d="M1166.16 252.152H1168.13L1169.12 271.405H1165.17L1166.16 252.152Z" fill="#805F5A"/>
    <path fill-rule="evenodd" clip-rule="evenodd" d="M1171 180.5C1171 181.706 1171.13 182.882 1171.38 184.015C1164.49 184.341 1159 190.03 1159 197C1159 204.18 1164.82 210 1172 210C1172.55 210 1173.08 209.966 1173.61 209.901C1173.21 211.367 1173 212.909 1173 214.5C1173 224.165 1180.84 232 1190.5 232C1195.34 232 1199.73 230.032 1202.9 226.852C1203.37 226.803 1203.84 226.742 1204.31 226.67C1206.61 228.74 1209.66 230 1213 230C1218.71 230 1223.56 226.321 1225.3 221.206C1232.66 218.942 1238 212.095 1238 204C1238 198.243 1235.3 193.117 1231.09 189.822C1231.68 187.987 1232 186.031 1232 184C1232 173.507 1223.49 165 1213 165C1208.07 165 1203.57 166.88 1200.2 169.962C1197.17 166.319 1192.61 164 1187.5 164C1178.39 164 1171 171.387 1171 180.5Z" fill="url(#paint1_linear)"/>
    <path d="M1200 219H1204L1206 258H1198L1200 219Z" fill="#805F5A"/>
    <path fill-rule="evenodd" clip-rule="evenodd" d="M828.936 218.287C828.936 219.185 829.033 220.061 829.216 220.905C824.085 221.147 820 225.384 820 230.574C820 235.921 824.334 240.255 829.681 240.255C830.087 240.255 830.487 240.23 830.88 240.182C830.584 241.273 830.426 242.421 830.426 243.606C830.426 250.804 836.26 256.638 843.457 256.638C847.065 256.638 850.329 255.173 852.689 252.805C853.043 252.768 853.394 252.723 853.743 252.669C855.457 254.211 857.725 255.149 860.213 255.149C864.463 255.149 868.074 252.41 869.376 248.6C874.851 246.914 878.83 241.815 878.83 235.787C878.83 231.5 876.817 227.683 873.685 225.229C874.124 223.863 874.362 222.406 874.362 220.894C874.362 213.079 868.027 206.745 860.213 206.745C856.54 206.745 853.193 208.144 850.678 210.439C848.425 207.727 845.026 206 841.223 206C834.437 206 828.936 211.501 828.936 218.287Z" fill="url(#paint2_linear)"/>
    <path d="M850.532 246.958H853.511L855 276H849.042L850.532 246.958Z" fill="#805F5A"/>
    <circle opacity="0.3" cx="1188.5" cy="75.5" r="75.5" fill="#FFBC57"/>
    <circle opacity="0.3" cx="1188.5" cy="75.5" r="31.5" fill="#FFBC57"/>
    <circle opacity="0.3" cx="1188.5" cy="75.5" r="61.5" fill="#FFBC57"/>
    <rect x="867" y="83" width="311" height="170" fill="url(#paint3_linear)"/>
    <rect x="867" y="83" width="311" height="11" fill="#FFA552"/>
    <rect x="867" y="94" width="311" height="4" fill="#C6D1E1"/>
    <rect x="891.5" y="118.5" width="44" height="80" fill="url(#paint4_linear)" stroke="#B5C2DB"/>
    <rect x="1006.5" y="118.5" width="44" height="80" fill="url(#paint5_linear)" stroke="#B5C2DB"/>
    <rect x="1113.5" y="118.5" width="44" height="80" fill="url(#paint6_linear)" stroke="#B5C2DB"/>
    <rect x="950.5" y="118.5" width="27" height="27" fill="url(#paint7_linear)" stroke="#B5C2DB"/>
    <rect x="950.5" y="171.5" width="27" height="27" fill="url(#paint8_linear)" stroke="#B5C2DB"/>
    <rect x="1065.5" y="118.5" width="27" height="27" fill="url(#paint9_linear)" stroke="#B5C2DB"/>
    <rect x="1065.5" y="171.5" width="27" height="27" fill="url(#paint10_linear)" stroke="#B5C2DB"/>
    <path fill-rule="evenodd" clip-rule="evenodd" d="M809 183.5C809 184.706 809.129 185.882 809.375 187.015C802.486 187.341 797 193.03 797 200C797 207.18 802.82 213 810 213C810.545 213 811.083 212.966 811.611 212.901C811.212 214.367 811 215.909 811 217.5C811 227.165 818.835 235 828.5 235C833.344 235 837.728 233.032 840.897 229.852C841.372 229.803 841.844 229.742 842.311 229.67C844.614 231.74 847.66 233 851 233C856.708 233 861.557 229.321 863.305 224.206C870.657 221.942 876 215.095 876 207C876 201.243 873.297 196.117 869.091 192.822C869.681 190.987 870 189.031 870 187C870 176.507 861.493 168 851 168C846.068 168 841.574 169.88 838.197 172.962C835.17 169.319 830.606 167 825.5 167C816.387 167 809 174.387 809 183.5Z" fill="url(#paint11_linear)"/>
    <path d="M838 222H842L844 261H836L838 222Z" fill="#805F5A"/>
    <path fill-rule="evenodd" clip-rule="evenodd" d="M864.924 252.146C864.924 252.741 864.988 253.322 865.109 253.881C861.708 254.042 859 256.85 859 260.291C859 263.836 861.873 266.709 865.418 266.709C865.687 266.709 865.952 266.692 866.213 266.66C866.016 267.384 865.911 268.145 865.911 268.931C865.911 273.702 869.779 277.57 874.551 277.57C876.942 277.57 879.106 276.598 880.671 275.028C880.905 275.004 881.138 274.974 881.369 274.939C882.506 275.96 884.009 276.582 885.658 276.582C888.476 276.582 890.87 274.766 891.733 272.241C895.362 271.123 898 267.743 898 263.747C898 260.905 896.666 258.374 894.589 256.748C894.881 255.842 895.038 254.876 895.038 253.873C895.038 248.693 890.839 244.494 885.658 244.494C883.223 244.494 881.005 245.422 879.338 246.943C877.843 245.145 875.59 244 873.07 244C868.571 244 864.924 247.647 864.924 252.146Z" fill="url(#paint12_linear)"/>
    <path d="M879.241 271.152H881.215L882.203 290.405H878.253L879.241 271.152Z" fill="#805F5A"/>
    <path fill-rule="evenodd" clip-rule="evenodd" d="M890.839 227.943C890.839 228.538 890.903 229.119 891.024 229.678C887.623 229.839 884.915 232.647 884.915 236.088C884.915 239.633 887.788 242.506 891.333 242.506C891.602 242.506 891.867 242.49 892.128 242.457C891.931 243.181 891.826 243.942 891.826 244.728C891.826 249.499 895.694 253.367 900.465 253.367C902.857 253.367 905.021 252.396 906.585 250.826C906.82 250.802 907.053 250.772 907.284 250.736C908.421 251.758 909.924 252.38 911.573 252.38C914.391 252.38 916.785 250.564 917.648 248.038C921.277 246.92 923.915 243.54 923.915 239.544C923.915 236.702 922.581 234.172 920.504 232.545C920.796 231.639 920.953 230.673 920.953 229.671C920.953 224.49 916.753 220.291 911.573 220.291C909.138 220.291 906.92 221.219 905.252 222.74C903.758 220.942 901.505 219.797 898.984 219.797C894.486 219.797 890.839 223.444 890.839 227.943Z" fill="url(#paint13_linear)"/>
    <path d="M905.155 246.949H907.13L908.117 266.202H904.168L905.155 246.949Z" fill="#805F5A"/>
    <path fill-rule="evenodd" clip-rule="evenodd" d="M1106.94 224.287C1106.94 225.185 1107.03 226.061 1107.22 226.905C1102.09 227.147 1098 231.384 1098 236.574C1098 241.921 1102.33 246.255 1107.68 246.255C1108.09 246.255 1108.49 246.23 1108.88 246.182C1108.58 247.273 1108.43 248.421 1108.43 249.606C1108.43 256.804 1114.26 262.638 1121.46 262.638C1125.06 262.638 1128.33 261.173 1130.69 258.805C1131.04 258.768 1131.39 258.723 1131.74 258.669C1133.46 260.211 1135.73 261.149 1138.21 261.149C1142.46 261.149 1146.07 258.41 1147.38 254.6C1152.85 252.914 1156.83 247.815 1156.83 241.787C1156.83 237.5 1154.82 233.683 1151.69 231.229C1152.12 229.863 1152.36 228.406 1152.36 226.894C1152.36 219.079 1146.03 212.745 1138.21 212.745C1134.54 212.745 1131.19 214.144 1128.68 216.439C1126.42 213.727 1123.03 212 1119.22 212C1112.44 212 1106.94 217.501 1106.94 224.287Z" fill="url(#paint14_linear)"/>
    <path d="M1128.53 252.958H1131.51L1133 282H1127.04L1128.53 252.958Z" fill="#805F5A"/>
    <path fill-rule="evenodd" clip-rule="evenodd" d="M1194.77 212.687C1194.77 213.469 1194.86 214.23 1195.02 214.964C1190.55 215.175 1187 218.86 1187 223.375C1187 228.025 1190.77 231.795 1195.42 231.795C1195.77 231.795 1196.12 231.774 1196.46 231.731C1196.21 232.681 1196.07 233.679 1196.07 234.71C1196.07 240.971 1201.14 246.045 1207.4 246.045C1210.54 246.045 1213.38 244.771 1215.43 242.711C1215.74 242.679 1216.05 242.64 1216.35 242.593C1217.84 243.934 1219.81 244.75 1221.98 244.75C1225.67 244.75 1228.81 242.367 1229.95 239.053C1234.71 237.587 1238.17 233.152 1238.17 227.909C1238.17 224.18 1236.42 220.86 1233.7 218.726C1234.08 217.537 1234.28 216.27 1234.28 214.954C1234.28 208.158 1228.77 202.648 1221.98 202.648C1218.78 202.648 1215.87 203.865 1213.68 205.861C1211.72 203.502 1208.77 202 1205.46 202C1199.56 202 1194.77 206.785 1194.77 212.687Z" fill="url(#paint15_linear)"/>
    <path d="M1213.56 237.625H1216.15L1217.44 262.886H1212.26L1213.56 237.625Z" fill="#805F5A"/>
    <g clip-path="url(#clip0)">
        <path d="M1090.67 254.125H975.165V202.792L1032.92 148.25L1090.67 202.792V254.125Z" fill="url(#paint16_linear)"/>
        <path d="M1081.04 196.375L1065 180.333V157.875H1081.04V196.375Z" fill="#811918"/>
        <path d="M975.165 254.125H1090.67V270.167H975.165V254.125Z" fill="url(#paint17_linear)"/>
        <path d="M1032.92 142.795L968.749 202.47L975.165 209.529L1032.92 155.95L1090.67 209.529L1097.08 202.47L1032.92 142.795Z" fill="#BB4442"/>
        <path d="M1032.92 155.795L974.749 209.47L1032.92 168.95L1091.08 209.47L1032.92 155.795Z" fill="#F9CC86"/>
        <path d="M1013.67 218.833H1052.17V270.166H1013.67V218.833Z" fill="#A85C30"/>
        <path d="M1013.67 218.833L1037.64 233.361V284.695L1013.67 270.166V218.833Z" fill="url(#paint18_linear)"/>
        <path d="M1023.79 184.042H1042.04V202.292H1023.79V184.042Z" fill="url(#paint19_linear)" stroke="#F5A66C"/>
        <path d="M1031.07 248.707C1030.11 248.707 1029.46 249.348 1029.46 250.311V256.727C1029.46 257.69 1030.11 258.332 1031.07 258.332C1032.03 258.332 1032.67 257.69 1032.67 256.727V250.311C1032.67 249.348 1032.03 248.707 1031.07 248.707Z" fill="#BB4442"/>
    </g>
    <path fill-rule="evenodd" clip-rule="evenodd" d="M916.915 215.5C916.915 216.706 917.044 217.882 917.29 219.015C910.401 219.341 904.915 225.03 904.915 232C904.915 239.18 910.735 245 917.915 245C918.46 245 918.998 244.966 919.526 244.901C919.127 246.367 918.915 247.909 918.915 249.5C918.915 259.165 926.75 267 936.415 267C941.259 267 945.643 265.032 948.812 261.852C949.287 261.803 949.759 261.742 950.226 261.67C952.529 263.74 955.575 265 958.915 265C964.623 265 969.472 261.321 971.22 256.206C978.572 253.942 983.915 247.095 983.915 239C983.915 233.243 981.212 228.117 977.006 224.822C977.596 222.987 977.915 221.031 977.915 219C977.915 208.507 969.408 200 958.915 200C953.983 200 949.489 201.88 946.112 204.962C943.085 201.319 938.521 199 933.415 199C924.302 199 916.915 206.387 916.915 215.5Z" fill="url(#paint20_linear)"/>
    <path d="M945.915 254H949.915L951.915 293H943.915L945.915 254Z" fill="#805F5A"/>
    <path d="M1036 308C1036 308 1014 384 818 502.5C622 621 366.5 674.5 366.5 674.5" stroke="#FED699" stroke-width="12" stroke-linecap="round" stroke-linejoin="round" stroke-dasharray="2 42"/>
    <rect x="195" y="346.943" width="89.9938" height="73.2527" transform="rotate(-24.2367 195 346.943)" fill="url(#paint21_radial)"/>
    <rect x="195" y="346.943" width="89.9938" height="9.63504" transform="rotate(-24.2367 195 346.943)" fill="url(#paint22_radial)"/>
    <g clip-path="url(#clip1)">
        <path fill-rule="evenodd" clip-rule="evenodd" d="M163.844 319.736C169.265 329.821 168.62 355.401 161.614 357.203C158.82 357.922 152.868 356.161 146.811 352.517L150.613 379.365H128.161L135.89 343.409C131.579 338.36 128.662 332.171 129.15 325.237C130.554 305.256 158.423 309.652 163.844 319.736Z" fill="#ECB493"/>
        <path fill-rule="evenodd" clip-rule="evenodd" d="M154.975 308.753C151.908 307.819 147.454 307.503 145.581 307.717C146.646 305.169 147.069 302.329 146.724 299.565C146.389 296.879 145.187 294.592 144.075 292.195C143.562 291.09 142.981 289.992 142.115 289.147C141.232 288.286 140.115 287.718 138.944 287.447C137.745 287.169 136.492 287.192 135.291 287.444C134.76 287.555 134.284 287.798 133.763 287.932C133.229 288.07 132.971 287.737 132.583 287.402C131.65 286.596 130.283 286.197 129.102 286.055C127.778 285.895 126.404 286.094 125.141 286.529C123.911 286.952 122.731 287.639 121.842 288.639C121.446 289.085 121.087 289.592 120.853 290.151C120.758 290.381 120.742 290.517 120.512 290.601C120.3 290.679 120.051 290.681 119.832 290.756C117.712 291.472 115.9 293.107 114.913 295.205C114.338 296.43 114.065 298.585 114.14 301.002C114.214 303.418 116.4 309.722 118.445 312.022C120.27 314.074 122.952 315.429 125.541 316.022C123.823 317.982 122.679 320.432 121.833 322.923C120.914 325.629 120.346 328.441 120.136 331.305C119.936 334.027 119.918 336.906 120.557 339.57C121.155 342.061 122.434 344.104 124.57 345.401C125.548 345.995 126.6 346.441 127.659 346.849C128.702 347.251 129.748 347.641 130.841 347.867C132.909 348.293 135.292 348.22 136.885 346.577C137.459 345.985 138.09 345.241 138.509 344.517C138.66 344.257 138.75 344.087 138.567 343.833C138.348 343.528 137.994 343.295 137.712 343.056C136.106 341.698 135.112 339.884 134.862 337.729C134.607 335.542 135.196 332.719 137.326 331.765C139.956 330.587 142.852 331.939 145.19 333.199C146.183 329.7 148.223 326.55 151.42 324.945C154.958 323.169 159.018 322.961 162.654 321.438C163.601 321.041 164.566 320.59 165.263 319.781C165.555 319.443 165.897 319.004 166.013 318.557C166.166 317.97 165.787 317.478 165.493 317.02C163.939 314.592 158.043 309.687 154.975 308.753Z" fill="#191847"/>
        <path fill-rule="evenodd" clip-rule="evenodd" d="M122.548 456.858L192.061 572.842L244.175 670.897H255.4L168.082 456.858L122.548 456.858Z" fill="#F7A677"/>
        <path fill-rule="evenodd" clip-rule="evenodd" d="M237.312 666.371C236.265 669.159 235.742 671.245 235.742 672.63C235.742 674.313 236.023 676.77 236.585 680C238.542 680 256.13 680 289.348 680C290.719 675.476 289.928 673.034 286.974 672.673C284.019 672.312 281.565 671.987 279.611 671.696L255.088 660.785C254.616 660.575 254.063 660.786 253.852 661.257C253.849 661.265 253.845 661.273 253.842 661.282L252.266 665.098C249.531 666.371 247.309 667.008 245.599 667.008C244.21 667.008 242.291 666.448 239.844 665.328L239.844 665.328C238.904 664.899 237.794 665.31 237.363 666.248C237.345 666.288 237.327 666.329 237.312 666.371Z" fill="#E4E4E4"/>
        <path fill-rule="evenodd" clip-rule="evenodd" d="M229.701 655.196L251.349 648.66C241.864 620.363 230.24 589.223 216.476 555.241C202.712 521.258 187.929 488.464 172.129 456.858H110.99C128.556 496.838 147.179 533.165 166.858 565.838C186.538 598.512 207.485 628.298 229.701 655.196Z" fill="url(#paint23_linear)"/>
        <path fill-rule="evenodd" clip-rule="evenodd" d="M117.98 456.858C111.419 497.616 98.7657 549.688 97.5715 551.295C96.7754 552.367 68.1151 561.952 11.5906 580.05L14.0153 589.929C81.4207 580.223 116.938 572.692 120.566 567.337C126.009 559.305 153.184 495.85 163.71 456.858H117.98Z" fill="#ECB493"/>
        <path fill-rule="evenodd" clip-rule="evenodd" d="M31.4597 571.51L35.7306 587.421C86.1459 591.834 117.036 588.646 128.402 577.855C139.768 567.065 152.722 526.732 167.263 456.858H108.963C99.7501 514.076 94.5993 543.885 93.511 546.287C92.4226 548.689 71.7389 557.097 31.4597 571.51Z" fill="url(#paint24_linear)"/>
        <path fill-rule="evenodd" clip-rule="evenodd" d="M14.3508 575.933C11.4191 575.387 9.27077 575.235 7.90565 575.475C6.24535 575.766 3.87142 576.469 0.783856 577.581C1.1241 579.505 4.18193 596.793 9.95736 629.446C14.657 630.01 16.9279 628.808 16.77 625.842C16.6122 622.876 16.5067 620.407 16.4536 618.436L22.95 592.438C23.075 591.938 22.7702 591.431 22.2692 591.306C22.2606 591.303 22.252 591.301 22.2434 591.299L18.2058 590.411C16.4746 587.944 15.4603 585.87 15.163 584.189C14.9215 582.824 15.1401 580.841 15.8189 578.241L15.8189 578.241C16.0794 577.243 15.4804 576.223 14.4811 575.962C14.438 575.951 14.3946 575.941 14.3508 575.933Z" fill="#E4E4E4"/>
        <path fill-rule="evenodd" clip-rule="evenodd" d="M244.682 402.153C248.735 401.321 258.628 393.977 260.332 395.468C262.854 397.674 260.606 404.447 257.956 407.816C253.005 414.113 248.905 416.267 238.771 419.087C233.473 420.561 227.745 423.516 221.586 427.952L220.774 413.667L235.037 405.847C237.038 398.247 239.431 394.423 242.214 394.376C244.352 393.383 240.628 402.986 244.682 402.153ZM220.133 369.601C217.514 374.24 214.969 379.237 216.303 380.666C217.637 382.095 220.964 380.099 222.556 382.474C223.617 384.057 217.933 386.558 205.504 389.976L181.91 411.536L169.919 398.692L202.39 380.943C207.79 374.543 213.11 369.573 218.35 366.032C219.952 365.365 222.752 364.961 220.133 369.601Z" fill="#ECB493"/>
        <path fill-rule="evenodd" clip-rule="evenodd" d="M154.106 394.738C165.479 394.618 180.646 392.221 196.828 381.969L203.183 396.114C192.021 407.17 176.326 416.253 162.602 415.869C151.787 415.566 146.26 402.51 154.106 394.738Z" fill="#BC3D3D"/>
        <path fill-rule="evenodd" clip-rule="evenodd" d="M154.864 358.825C156.296 377.188 163.504 397.427 169.42 417.421C181.494 420.427 201.741 416.883 230.163 406.789C237.212 421.345 240.471 431.722 239.939 437.921C215.555 450.633 194.656 456.3 177.439 456.673C177.993 466.865 176.75 476.567 172.572 485.433C163.985 503.656 113.703 486.78 96.7971 490.101C86.2099 455.785 106.681 441.84 106.697 419.882C106.715 395.837 126.061 358.825 128.907 358.825H154.864Z" fill="url(#paint25_linear)"/>
    </g>
    <defs>
        <linearGradient id="paint0_linear" x1="1165.42" y1="225" x2="1165.42" y2="258.57" gradientUnits="userSpaceOnUse">
            <stop stop-color="#A0D16E"/>
            <stop offset="1" stop-color="#5CBC71"/>
        </linearGradient>
        <linearGradient id="paint1_linear" x1="1198.5" y1="164" x2="1198.5" y2="232" gradientUnits="userSpaceOnUse">
            <stop stop-color="#A0D16E"/>
            <stop offset="1" stop-color="#5CBC71"/>
        </linearGradient>
        <linearGradient id="paint2_linear" x1="849.415" y1="206" x2="849.415" y2="256.638" gradientUnits="userSpaceOnUse">
            <stop stop-color="#B7E489"/>
            <stop offset="1" stop-color="#89E4A3"/>
        </linearGradient>
        <linearGradient id="paint3_linear" x1="1022.5" y1="83" x2="1022.5" y2="253" gradientUnits="userSpaceOnUse">
            <stop stop-color="#E4EDF9"/>
            <stop offset="1" stop-color="#B9C3DC"/>
        </linearGradient>
        <linearGradient id="paint4_linear" x1="913.5" y1="118" x2="913.5" y2="199" gradientUnits="userSpaceOnUse">
            <stop stop-color="#F9FCFF"/>
            <stop offset="1" stop-color="#E5F1F9"/>
        </linearGradient>
        <linearGradient id="paint5_linear" x1="1028.5" y1="118" x2="1028.5" y2="199" gradientUnits="userSpaceOnUse">
            <stop stop-color="#F9FCFF"/>
            <stop offset="1" stop-color="#E5F1F9"/>
        </linearGradient>
        <linearGradient id="paint6_linear" x1="1135.5" y1="118" x2="1135.5" y2="199" gradientUnits="userSpaceOnUse">
            <stop stop-color="#F9FCFF"/>
            <stop offset="1" stop-color="#E5F1F9"/>
        </linearGradient>
        <linearGradient id="paint7_linear" x1="964" y1="118" x2="964" y2="146" gradientUnits="userSpaceOnUse">
            <stop stop-color="#F9FCFF"/>
            <stop offset="1" stop-color="#E5F1F9"/>
        </linearGradient>
        <linearGradient id="paint8_linear" x1="964" y1="171" x2="964" y2="199" gradientUnits="userSpaceOnUse">
            <stop stop-color="#F9FCFF"/>
            <stop offset="1" stop-color="#E5F1F9"/>
        </linearGradient>
        <linearGradient id="paint9_linear" x1="1079" y1="118" x2="1079" y2="146" gradientUnits="userSpaceOnUse">
            <stop stop-color="#F9FCFF"/>
            <stop offset="1" stop-color="#E5F1F9"/>
        </linearGradient>
        <linearGradient id="paint10_linear" x1="1079" y1="171" x2="1079" y2="199" gradientUnits="userSpaceOnUse">
            <stop stop-color="#F9FCFF"/>
            <stop offset="1" stop-color="#E5F1F9"/>
        </linearGradient>
        <linearGradient id="paint11_linear" x1="836.5" y1="167" x2="836.5" y2="235" gradientUnits="userSpaceOnUse">
            <stop stop-color="#A0D16E"/>
            <stop offset="1" stop-color="#5CBC71"/>
        </linearGradient>
        <linearGradient id="paint12_linear" x1="878.5" y1="244" x2="878.5" y2="277.57" gradientUnits="userSpaceOnUse">
            <stop stop-color="#A0D16E"/>
            <stop offset="1" stop-color="#5CBC71"/>
        </linearGradient>
        <linearGradient id="paint13_linear" x1="904.415" y1="219.797" x2="904.415" y2="253.367" gradientUnits="userSpaceOnUse">
            <stop stop-color="#A0D16E"/>
            <stop offset="1" stop-color="#5CBC71"/>
        </linearGradient>
        <linearGradient id="paint14_linear" x1="1127.41" y1="212" x2="1127.41" y2="262.638" gradientUnits="userSpaceOnUse">
            <stop stop-color="#B7E489"/>
            <stop offset="1" stop-color="#89E4A3"/>
        </linearGradient>
        <linearGradient id="paint15_linear" x1="1212.59" y1="202" x2="1212.59" y2="246.045" gradientUnits="userSpaceOnUse">
            <stop stop-color="#B7E489"/>
            <stop offset="1" stop-color="#89E4A3"/>
        </linearGradient>
        <linearGradient id="paint16_linear" x1="1033" y1="148" x2="1028.5" y2="248.5" gradientUnits="userSpaceOnUse">
            <stop stop-color="#F2B65C"/>
            <stop offset="0.471634" stop-color="#FFDFAF"/>
            <stop offset="1" stop-color="#FFE3B8"/>
        </linearGradient>
        <linearGradient id="paint17_linear" x1="1032.92" y1="254.125" x2="1032.92" y2="270.167" gradientUnits="userSpaceOnUse">
            <stop stop-color="#FFCBA6"/>
            <stop offset="1" stop-color="#FFE5C7"/>
        </linearGradient>
        <linearGradient id="paint18_linear" x1="1025.65" y1="218.833" x2="1025.65" y2="284.695" gradientUnits="userSpaceOnUse">
            <stop stop-color="#ECA553"/>
            <stop offset="1" stop-color="#EC8153"/>
        </linearGradient>
        <linearGradient id="paint19_linear" x1="1032.92" y1="183.542" x2="1032.92" y2="202.792" gradientUnits="userSpaceOnUse">
            <stop stop-color="#F9FCFF"/>
            <stop offset="1" stop-color="#E5F1F9"/>
        </linearGradient>
        <linearGradient id="paint20_linear" x1="944.415" y1="199" x2="944.415" y2="267" gradientUnits="userSpaceOnUse">
            <stop stop-color="#B7E489"/>
            <stop offset="1" stop-color="#89E4A3"/>
        </linearGradient>
        <linearGradient id="paint23_linear" x1="181.169" y1="456.858" x2="181.169" y2="655.196" gradientUnits="userSpaceOnUse">
            <stop stop-color="#9DC8E6"/>
            <stop offset="1" stop-color="#C3E0F3"/>
        </linearGradient>
        <linearGradient id="paint24_linear" x1="115" y1="457" x2="31" y2="589" gradientUnits="userSpaceOnUse">
            <stop stop-color="#BBE4FF"/>
            <stop offset="1" stop-color="#E5F1F9"/>
        </linearGradient>
        <linearGradient id="paint25_linear" x1="166.876" y1="358.825" x2="166.876" y2="494.048" gradientUnits="userSpaceOnUse">
            <stop stop-color="#FD6D6D"/>
            <stop offset="1" stop-color="#DE5959"/>
        </linearGradient>
        <radialGradient id="paint21_radial" cx="0" cy="0" r="1" gradientUnits="userSpaceOnUse" gradientTransform="translate(258.308 349.4) rotate(104.501) scale(73.1257 88.7641)">
            <stop stop-color="#FFD0A4"/>
            <stop offset="1" stop-color="#F69F4E"/>
        </radialGradient>
        <radialGradient id="paint22_radial" cx="0" cy="0" r="1" gradientUnits="userSpaceOnUse" gradientTransform="translate(238.568 340.299) rotate(84.9825) scale(16.3418 70.4793)">
            <stop stop-color="#FFBFA4"/>
            <stop offset="1" stop-color="#F68A4E"/>
        </radialGradient>
        <clipPath id="clip0">
            <rect x="955.915" y="129" width="154" height="154" fill="white"/>
        </clipPath>
        <clipPath id="clip1">
            <rect y="286" width="290" height="394" fill="white"/>
        </clipPath>
    </defs>
</svg>
