<svg width="467" height="293" viewBox="0 0 467 293" fill="none" xmlns="http://www.w3.org/2000/svg">
    <path fill-rule="evenodd" clip-rule="evenodd" d="M354.839 233.146C354.839 233.741 354.903 234.322 355.024 234.881C351.623 235.042 348.915 237.85 348.915 241.291C348.915 244.836 351.788 247.709 355.333 247.709C355.602 247.709 355.867 247.692 356.128 247.66C355.931 248.384 355.826 249.145 355.826 249.931C355.826 254.702 359.694 258.57 364.466 258.57C366.857 258.57 369.021 257.598 370.586 256.028C370.82 256.004 371.053 255.974 371.284 255.939C372.421 256.96 373.924 257.582 375.573 257.582C378.391 257.582 380.785 255.766 381.648 253.241C385.277 252.123 387.915 248.743 387.915 244.747C387.915 241.905 386.581 239.374 384.505 237.748C384.796 236.842 384.953 235.876 384.953 234.873C384.953 229.693 380.754 225.494 375.573 225.494C373.138 225.494 370.92 226.422 369.253 227.943C367.759 226.145 365.505 225 362.985 225C358.486 225 354.839 228.647 354.839 233.146Z" fill="url(#paint0_linear)"/>
    <path d="M369.156 252.152H371.13L372.118 271.405H368.168L369.156 252.152Z" fill="#805F5A"/>
    <path fill-rule="evenodd" clip-rule="evenodd" d="M374 180.5C374 181.706 374.129 182.882 374.375 184.015C367.486 184.341 362 190.03 362 197C362 204.18 367.82 210 375 210C375.545 210 376.083 209.966 376.611 209.901C376.212 211.367 376 212.909 376 214.5C376 224.165 383.835 232 393.5 232C398.344 232 402.728 230.032 405.897 226.852C406.372 226.803 406.844 226.742 407.311 226.67C409.614 228.74 412.66 230 416 230C421.708 230 426.557 226.321 428.305 221.206C435.657 218.942 441 212.095 441 204C441 198.243 438.297 193.117 434.091 189.822C434.681 187.987 435 186.031 435 184C435 173.507 426.493 165 416 165C411.068 165 406.574 166.88 403.197 169.962C400.17 166.319 395.606 164 390.5 164C381.387 164 374 171.387 374 180.5Z" fill="url(#paint1_linear)"/>
    <path d="M403 219H407L409 258H401L403 219Z" fill="#805F5A"/>
    <path fill-rule="evenodd" clip-rule="evenodd" d="M31.9362 218.287C31.9362 219.185 32.0326 220.061 32.2155 220.905C27.085 221.147 23 225.384 23 230.574C23 235.921 27.3343 240.255 32.6809 240.255C33.087 240.255 33.4872 240.23 33.8802 240.182C33.5837 241.273 33.4255 242.421 33.4255 243.606C33.4255 250.804 39.2601 256.638 46.4574 256.638C50.0646 256.638 53.3294 255.173 55.689 252.805C56.0429 252.768 56.3941 252.723 56.7425 252.669C58.4572 254.211 60.7254 255.149 63.2128 255.149C67.4633 255.149 71.0741 252.41 72.3758 248.6C77.8507 246.914 81.8298 241.815 81.8298 235.787C81.8298 231.5 79.8171 227.683 76.685 225.229C77.1244 223.863 77.3617 222.406 77.3617 220.894C77.3617 213.079 71.027 206.745 63.2128 206.745C59.5396 206.745 56.1934 208.144 53.6784 210.439C51.4245 207.727 48.0256 206 44.2234 206C37.4374 206 31.9362 211.501 31.9362 218.287Z" fill="url(#paint2_linear)"/>
    <path d="M53.5318 246.958H56.5106L57.9999 276H52.0425L53.5318 246.958Z" fill="#805F5A"/>
    <circle opacity="0.3" cx="391.5" cy="75.5" r="75.5" fill="#FFBC57"/>
    <circle opacity="0.3" cx="391.5" cy="75.5" r="31.5" fill="#FFBC57"/>
    <circle opacity="0.3" cx="391.5" cy="75.5" r="61.5" fill="#FFBC57"/>
    <rect x="70" y="83" width="311" height="170" fill="url(#paint3_linear)"/>
    <rect x="70" y="83" width="311" height="11" fill="#FFA552"/>
    <rect x="70" y="94" width="311" height="4" fill="#C6D1E1"/>
    <rect x="94.5" y="118.5" width="44" height="80" fill="url(#paint4_linear)" stroke="#B5C2DB"/>
    <rect x="209.5" y="118.5" width="44" height="80" fill="url(#paint5_linear)" stroke="#B5C2DB"/>
    <rect x="316.5" y="118.5" width="44" height="80" fill="url(#paint6_linear)" stroke="#B5C2DB"/>
    <rect x="153.5" y="118.5" width="27" height="27" fill="url(#paint7_linear)" stroke="#B5C2DB"/>
    <rect x="153.5" y="171.5" width="27" height="27" fill="url(#paint8_linear)" stroke="#B5C2DB"/>
    <rect x="268.5" y="118.5" width="27" height="27" fill="url(#paint9_linear)" stroke="#B5C2DB"/>
    <rect x="268.5" y="171.5" width="27" height="27" fill="url(#paint10_linear)" stroke="#B5C2DB"/>
    <path fill-rule="evenodd" clip-rule="evenodd" d="M12 183.5C12 184.706 12.1294 185.882 12.3751 187.015C5.48562 187.341 0 193.03 0 200C0 207.18 5.8203 213 13 213C13.5453 213 14.0828 212.966 14.6105 212.901C14.2124 214.367 14 215.909 14 217.5C14 227.165 21.835 235 31.5 235C36.3439 235 40.7281 233.032 43.8967 229.852C44.3719 229.803 44.8436 229.742 45.3114 229.67C47.6139 231.74 50.6599 233 54 233C59.7079 233 64.5566 229.321 66.3047 224.206C73.6566 221.942 79 215.095 79 207C79 201.243 76.2972 196.117 72.0913 192.822C72.6814 190.987 73 189.031 73 187C73 176.507 64.4934 168 54 168C49.0675 168 44.574 169.88 41.1966 172.962C38.17 169.319 33.6059 167 28.5 167C19.3873 167 12 174.387 12 183.5Z" fill="url(#paint11_linear)"/>
    <path d="M41 222H45L47 261H39L41 222Z" fill="#805F5A"/>
    <path fill-rule="evenodd" clip-rule="evenodd" d="M67.9241 252.146C67.9241 252.741 67.988 253.322 68.1093 253.881C64.7081 254.042 62 256.85 62 260.291C62 263.836 64.8733 266.709 68.4177 266.709C68.687 266.709 68.9523 266.692 69.2129 266.66C69.0163 267.384 68.9114 268.145 68.9114 268.931C68.9114 273.702 72.7793 277.57 77.5507 277.57C79.942 277.57 82.1064 276.598 83.6706 275.028C83.9053 275.004 84.1381 274.974 84.3691 274.939C85.5058 275.96 87.0094 276.582 88.6583 276.582C91.4761 276.582 93.8698 274.766 94.7327 272.241C98.3622 271.123 101 267.743 101 263.747C101 260.905 99.6658 258.374 97.5895 256.748C97.8807 255.842 98.038 254.876 98.038 253.873C98.038 248.693 93.8386 244.494 88.6583 244.494C86.2232 244.494 84.0049 245.422 82.3376 246.943C80.8435 245.145 78.5903 244 76.0697 244C71.571 244 67.9241 247.647 67.9241 252.146Z" fill="url(#paint12_linear)"/>
    <path d="M82.2405 271.152H84.2152L85.2025 290.405H81.2532L82.2405 271.152Z" fill="#805F5A"/>
    <path fill-rule="evenodd" clip-rule="evenodd" d="M93.8389 227.943C93.8389 228.538 93.9028 229.119 94.0241 229.678C90.6229 229.839 87.9148 232.647 87.9148 236.088C87.9148 239.633 90.7881 242.506 94.3325 242.506C94.6018 242.506 94.8671 242.49 95.1277 242.457C94.9311 243.181 94.8262 243.942 94.8262 244.728C94.8262 249.499 98.6941 253.367 103.465 253.367C105.857 253.367 108.021 252.396 109.585 250.826C109.82 250.802 110.053 250.772 110.284 250.736C111.421 251.758 112.924 252.38 114.573 252.38C117.391 252.38 119.785 250.564 120.648 248.038C124.277 246.92 126.915 243.54 126.915 239.544C126.915 236.702 125.581 234.172 123.504 232.545C123.796 231.639 123.953 230.673 123.953 229.671C123.953 224.49 119.753 220.291 114.573 220.291C112.138 220.291 109.92 221.219 108.252 222.74C106.758 220.942 104.505 219.797 101.984 219.797C97.4858 219.797 93.8389 223.444 93.8389 227.943Z" fill="url(#paint13_linear)"/>
    <path d="M108.155 246.949H110.13L111.117 266.202H107.168L108.155 246.949Z" fill="#805F5A"/>
    <path fill-rule="evenodd" clip-rule="evenodd" d="M309.936 224.287C309.936 225.185 310.033 226.061 310.216 226.905C305.085 227.147 301 231.384 301 236.574C301 241.921 305.334 246.255 310.681 246.255C311.087 246.255 311.487 246.23 311.88 246.182C311.584 247.273 311.426 248.421 311.426 249.606C311.426 256.804 317.26 262.638 324.457 262.638C328.065 262.638 331.329 261.173 333.689 258.805C334.043 258.768 334.394 258.723 334.743 258.669C336.457 260.211 338.725 261.149 341.213 261.149C345.463 261.149 349.074 258.41 350.376 254.6C355.851 252.914 359.83 247.815 359.83 241.787C359.83 237.5 357.817 233.683 354.685 231.229C355.124 229.863 355.362 228.406 355.362 226.894C355.362 219.079 349.027 212.745 341.213 212.745C337.54 212.745 334.193 214.144 331.678 216.439C329.425 213.727 326.026 212 322.223 212C315.437 212 309.936 217.501 309.936 224.287Z" fill="url(#paint14_linear)"/>
    <path d="M331.532 252.958H334.511L336 282H330.042L331.532 252.958Z" fill="#805F5A"/>
    <path fill-rule="evenodd" clip-rule="evenodd" d="M397.773 212.687C397.773 213.469 397.857 214.23 398.016 214.964C393.553 215.175 390 218.86 390 223.375C390 228.025 393.77 231.795 398.42 231.795C398.774 231.795 399.122 231.774 399.464 231.731C399.206 232.681 399.068 233.679 399.068 234.71C399.068 240.971 404.143 246.045 410.403 246.045C413.541 246.045 416.381 244.771 418.433 242.711C418.741 242.679 419.046 242.64 419.35 242.593C420.841 243.934 422.814 244.75 424.977 244.75C428.674 244.75 431.815 242.367 432.947 239.053C437.709 237.587 441.17 233.152 441.17 227.909C441.17 224.18 439.42 220.86 436.695 218.726C437.078 217.537 437.284 216.27 437.284 214.954C437.284 208.158 431.774 202.648 424.977 202.648C421.782 202.648 418.872 203.865 416.684 205.861C414.724 203.502 411.767 202 408.46 202C402.558 202 397.773 206.785 397.773 212.687Z" fill="url(#paint15_linear)"/>
    <path d="M416.557 237.625H419.148L420.443 262.886H415.261L416.557 237.625Z" fill="#805F5A"/>
    <g clip-path="url(#clip0)">
        <path d="M293.665 254.125H178.165V202.792L235.915 148.25L293.665 202.792V254.125Z" fill="url(#paint16_linear)"/>
        <path d="M284.04 196.375L267.999 180.333V157.875H284.04V196.375Z" fill="#811918"/>
        <path d="M178.165 254.125H293.665V270.167H178.165V254.125Z" fill="url(#paint17_linear)"/>
        <path d="M235.915 142.795L171.749 202.47L178.165 209.529L235.915 155.95L293.665 209.529L300.082 202.47L235.915 142.795Z" fill="#BB4442"/>
        <path d="M235.915 155.795L177.749 209.47L235.915 168.95L294.082 209.47L235.915 155.795Z" fill="#F9CC86"/>
        <path d="M216.665 218.833H255.165V270.166H216.665V218.833Z" fill="#A85C30"/>
        <path d="M216.665 218.833L240.637 233.361V284.695L216.665 270.166V218.833Z" fill="url(#paint18_linear)"/>
        <path d="M226.79 184.042H245.04V202.292H226.79V184.042Z" fill="url(#paint19_linear)" stroke="#F5A66C"/>
        <path d="M234.069 248.707C233.106 248.707 232.465 249.348 232.465 250.311V256.727C232.465 257.69 233.106 258.332 234.069 258.332C235.031 258.332 235.673 257.69 235.673 256.727V250.311C235.673 249.348 235.031 248.707 234.069 248.707Z" fill="#BB4442"/>
    </g>
    <path fill-rule="evenodd" clip-rule="evenodd" d="M119.915 215.5C119.915 216.706 120.044 217.882 120.29 219.015C113.401 219.341 107.915 225.03 107.915 232C107.915 239.18 113.735 245 120.915 245C121.46 245 121.998 244.966 122.526 244.901C122.127 246.367 121.915 247.909 121.915 249.5C121.915 259.165 129.75 267 139.415 267C144.259 267 148.643 265.032 151.812 261.852C152.287 261.803 152.759 261.742 153.226 261.67C155.529 263.74 158.575 265 161.915 265C167.623 265 172.472 261.321 174.22 256.206C181.572 253.942 186.915 247.095 186.915 239C186.915 233.243 184.212 228.117 180.006 224.822C180.596 222.987 180.915 221.031 180.915 219C180.915 208.507 172.408 200 161.915 200C156.983 200 152.489 201.88 149.112 204.962C146.085 201.319 141.521 199 136.415 199C127.302 199 119.915 206.387 119.915 215.5Z" fill="url(#paint20_linear)"/>
    <path d="M148.915 254H152.915L154.915 293H146.915L148.915 254Z" fill="#805F5A"/>
    <defs>
        <linearGradient id="paint0_linear" x1="368.415" y1="225" x2="368.415" y2="258.57" gradientUnits="userSpaceOnUse">
            <stop stop-color="#A0D16E"/>
            <stop offset="1" stop-color="#5CBC71"/>
        </linearGradient>
        <linearGradient id="paint1_linear" x1="401.5" y1="164" x2="401.5" y2="232" gradientUnits="userSpaceOnUse">
            <stop stop-color="#A0D16E"/>
            <stop offset="1" stop-color="#5CBC71"/>
        </linearGradient>
        <linearGradient id="paint2_linear" x1="52.4149" y1="206" x2="52.4149" y2="256.638" gradientUnits="userSpaceOnUse">
            <stop stop-color="#B7E489"/>
            <stop offset="1" stop-color="#89E4A3"/>
        </linearGradient>
        <linearGradient id="paint3_linear" x1="225.5" y1="83" x2="225.5" y2="253" gradientUnits="userSpaceOnUse">
            <stop stop-color="#E4EDF9"/>
            <stop offset="1" stop-color="#B9C3DC"/>
        </linearGradient>
        <linearGradient id="paint4_linear" x1="116.5" y1="118" x2="116.5" y2="199" gradientUnits="userSpaceOnUse">
            <stop stop-color="#F9FCFF"/>
            <stop offset="1" stop-color="#E5F1F9"/>
        </linearGradient>
        <linearGradient id="paint5_linear" x1="231.5" y1="118" x2="231.5" y2="199" gradientUnits="userSpaceOnUse">
            <stop stop-color="#F9FCFF"/>
            <stop offset="1" stop-color="#E5F1F9"/>
        </linearGradient>
        <linearGradient id="paint6_linear" x1="338.5" y1="118" x2="338.5" y2="199" gradientUnits="userSpaceOnUse">
            <stop stop-color="#F9FCFF"/>
            <stop offset="1" stop-color="#E5F1F9"/>
        </linearGradient>
        <linearGradient id="paint7_linear" x1="167" y1="118" x2="167" y2="146" gradientUnits="userSpaceOnUse">
            <stop stop-color="#F9FCFF"/>
            <stop offset="1" stop-color="#E5F1F9"/>
        </linearGradient>
        <linearGradient id="paint8_linear" x1="167" y1="171" x2="167" y2="199" gradientUnits="userSpaceOnUse">
            <stop stop-color="#F9FCFF"/>
            <stop offset="1" stop-color="#E5F1F9"/>
        </linearGradient>
        <linearGradient id="paint9_linear" x1="282" y1="118" x2="282" y2="146" gradientUnits="userSpaceOnUse">
            <stop stop-color="#F9FCFF"/>
            <stop offset="1" stop-color="#E5F1F9"/>
        </linearGradient>
        <linearGradient id="paint10_linear" x1="282" y1="171" x2="282" y2="199" gradientUnits="userSpaceOnUse">
            <stop stop-color="#F9FCFF"/>
            <stop offset="1" stop-color="#E5F1F9"/>
        </linearGradient>
        <linearGradient id="paint11_linear" x1="39.5" y1="167" x2="39.5" y2="235" gradientUnits="userSpaceOnUse">
            <stop stop-color="#A0D16E"/>
            <stop offset="1" stop-color="#5CBC71"/>
        </linearGradient>
        <linearGradient id="paint12_linear" x1="81.5" y1="244" x2="81.5" y2="277.57" gradientUnits="userSpaceOnUse">
            <stop stop-color="#A0D16E"/>
            <stop offset="1" stop-color="#5CBC71"/>
        </linearGradient>
        <linearGradient id="paint13_linear" x1="107.415" y1="219.797" x2="107.415" y2="253.367" gradientUnits="userSpaceOnUse">
            <stop stop-color="#A0D16E"/>
            <stop offset="1" stop-color="#5CBC71"/>
        </linearGradient>
        <linearGradient id="paint14_linear" x1="330.415" y1="212" x2="330.415" y2="262.638" gradientUnits="userSpaceOnUse">
            <stop stop-color="#B7E489"/>
            <stop offset="1" stop-color="#89E4A3"/>
        </linearGradient>
        <linearGradient id="paint15_linear" x1="415.585" y1="202" x2="415.585" y2="246.045" gradientUnits="userSpaceOnUse">
            <stop stop-color="#B7E489"/>
            <stop offset="1" stop-color="#89E4A3"/>
        </linearGradient>
        <linearGradient id="paint16_linear" x1="236" y1="148" x2="231.5" y2="248.5" gradientUnits="userSpaceOnUse">
            <stop stop-color="#F2B65C"/>
            <stop offset="0.471634" stop-color="#FFDFAF"/>
            <stop offset="1" stop-color="#FFE3B8"/>
        </linearGradient>
        <linearGradient id="paint17_linear" x1="235.915" y1="254.125" x2="235.915" y2="270.167" gradientUnits="userSpaceOnUse">
            <stop stop-color="#FFCBA6"/>
            <stop offset="1" stop-color="#FFE5C7"/>
        </linearGradient>
        <linearGradient id="paint18_linear" x1="228.651" y1="218.833" x2="228.651" y2="284.695" gradientUnits="userSpaceOnUse">
            <stop stop-color="#ECA553"/>
            <stop offset="1" stop-color="#EC8153"/>
        </linearGradient>
        <linearGradient id="paint19_linear" x1="235.915" y1="183.542" x2="235.915" y2="202.792" gradientUnits="userSpaceOnUse">
            <stop stop-color="#F9FCFF"/>
            <stop offset="1" stop-color="#E5F1F9"/>
        </linearGradient>
        <linearGradient id="paint20_linear" x1="147.415" y1="199" x2="147.415" y2="267" gradientUnits="userSpaceOnUse">
            <stop stop-color="#B7E489"/>
            <stop offset="1" stop-color="#89E4A3"/>
        </linearGradient>
        <clipPath id="clip0">
            <rect x="158.915" y="129" width="154" height="154" fill="white"/>
        </clipPath>
    </defs>
</svg>
