<svg width="308" height="394" viewBox="0 0 308 394" fill="none" xmlns="http://www.w3.org/2000/svg">
    <rect x="195" y="60.9434" width="89.9938" height="73.2527" transform="rotate(-24.2367 195 60.9434)" fill="url(#paint0_radial)"/>
    <rect x="195" y="60.9434" width="89.9938" height="9.63504" transform="rotate(-24.2367 195 60.9434)" fill="url(#paint1_radial)"/>
    <g clip-path="url(#clip0)">
        <path fill-rule="evenodd" clip-rule="evenodd" d="M163.844 33.7364C169.265 43.8208 168.62 69.4009 161.614 71.2033C158.82 71.9221 152.868 70.1614 146.811 66.5174L150.613 93.3649H128.161L135.89 57.4094C131.579 52.3597 128.662 46.1713 129.15 39.237C130.554 19.2565 158.423 23.6519 163.844 33.7364Z" fill="#ECB493"/>
        <path fill-rule="evenodd" clip-rule="evenodd" d="M154.975 22.753C151.908 21.8194 147.454 21.5027 145.581 21.7169C146.646 19.1686 147.069 16.3295 146.724 13.5651C146.389 10.8789 145.187 8.59178 144.075 6.19512C143.562 5.09041 142.981 3.99172 142.115 3.14675C141.232 2.28589 140.115 1.71766 138.944 1.44656C137.745 1.16907 136.492 1.19218 135.291 1.44401C134.76 1.55539 134.284 1.79774 133.763 1.93246C133.229 2.07049 132.971 1.7373 132.583 1.40246C131.65 0.595644 130.283 0.197353 129.102 0.0548056C127.778 -0.105052 126.404 0.0943185 125.141 0.52881C123.911 0.951787 122.731 1.63863 121.842 2.63925C121.446 3.08466 121.087 3.59163 120.853 4.15136C120.758 4.38106 120.742 4.51713 120.512 4.60128C120.3 4.67917 120.051 4.68143 119.832 4.75557C117.712 5.47207 115.9 7.10662 114.913 9.20533C114.338 10.4297 114.065 12.5854 114.14 15.0016C114.214 17.4177 116.4 23.7222 118.445 26.0218C120.27 28.0744 122.952 29.4289 125.541 30.0218C123.823 31.982 122.679 34.4315 121.833 36.9227C120.914 39.6288 120.346 42.4405 120.136 45.3054C119.936 48.0274 119.918 50.9059 120.557 53.5697C121.155 56.0608 122.434 58.1044 124.57 59.4009C125.548 59.9948 126.6 60.441 127.659 60.8487C128.702 61.2506 129.748 61.6413 130.841 61.8667C132.909 62.2933 135.292 62.2201 136.885 60.5773C137.459 59.985 138.09 59.2408 138.509 58.5173C138.66 58.2571 138.75 58.087 138.567 57.8327C138.348 57.5281 137.994 57.2947 137.712 57.0564C136.106 55.6978 135.112 53.8842 134.862 51.7288C134.607 49.5419 135.196 46.7191 137.326 45.7647C139.956 44.5866 142.852 45.9389 145.19 47.1995C146.183 43.7003 148.223 40.5498 151.42 38.9447C154.958 37.169 159.018 36.9612 162.654 35.4377C163.601 35.0407 164.566 34.59 165.263 33.7811C165.555 33.443 165.897 33.0045 166.013 32.5573C166.166 31.97 165.787 31.4775 165.493 31.0196C163.939 28.5917 158.043 23.6867 154.975 22.753Z" fill="#191847"/>
        <path fill-rule="evenodd" clip-rule="evenodd" d="M122.548 170.858L192.061 286.842L244.175 384.897H255.4L168.082 170.858L122.548 170.858Z" fill="#F7A677"/>
        <path fill-rule="evenodd" clip-rule="evenodd" d="M237.312 380.371C236.265 383.159 235.742 385.245 235.742 386.63C235.742 388.313 236.023 390.77 236.585 394C238.542 394 256.13 394 289.348 394C290.719 389.476 289.928 387.034 286.974 386.673C284.019 386.312 281.565 385.987 279.611 385.696L255.088 374.785C254.616 374.575 254.063 374.786 253.852 375.257C253.849 375.265 253.845 375.273 253.842 375.282L252.266 379.098C249.531 380.371 247.309 381.008 245.599 381.008C244.21 381.008 242.291 380.448 239.844 379.328L239.844 379.328C238.904 378.899 237.794 379.31 237.363 380.248C237.345 380.288 237.327 380.329 237.312 380.371Z" fill="#E4E4E4"/>
        <path fill-rule="evenodd" clip-rule="evenodd" d="M229.701 369.196L251.349 362.66C241.864 334.363 230.24 303.223 216.476 269.241C202.712 235.258 187.929 202.464 172.129 170.858H110.99C128.556 210.838 147.179 247.165 166.858 279.838C186.538 312.512 207.485 342.298 229.701 369.196Z" fill="url(#paint2_linear)"/>
        <path fill-rule="evenodd" clip-rule="evenodd" d="M117.98 170.858C111.419 211.616 98.7657 263.688 97.5715 265.295C96.7754 266.367 68.1151 275.952 11.5906 294.05L14.0153 303.929C81.4207 294.223 116.938 286.692 120.566 281.337C126.009 273.305 153.184 209.85 163.71 170.858H117.98Z" fill="#ECB493"/>
        <path fill-rule="evenodd" clip-rule="evenodd" d="M31.4597 285.51L35.7306 301.421C86.1459 305.834 117.036 302.646 128.402 291.855C139.768 281.065 152.722 240.732 167.263 170.858H108.963C99.7501 228.076 94.5993 257.885 93.511 260.287C92.4226 262.689 71.7389 271.097 31.4597 285.51Z" fill="url(#paint3_linear)"/>
        <path fill-rule="evenodd" clip-rule="evenodd" d="M14.3508 289.933C11.4191 289.387 9.27077 289.235 7.90565 289.475C6.24535 289.766 3.87142 290.469 0.783856 291.581C1.1241 293.505 4.18193 310.793 9.95736 343.446C14.657 344.01 16.9279 342.808 16.77 339.842C16.6122 336.876 16.5067 334.407 16.4536 332.436L22.95 306.438C23.075 305.938 22.7702 305.431 22.2692 305.306C22.2606 305.303 22.252 305.301 22.2434 305.299L18.2058 304.411C16.4746 301.944 15.4603 299.87 15.163 298.189C14.9215 296.824 15.1401 294.841 15.8189 292.241L15.8189 292.241C16.0794 291.243 15.4804 290.223 14.4811 289.962C14.438 289.951 14.3946 289.941 14.3508 289.933Z" fill="#E4E4E4"/>
        <path fill-rule="evenodd" clip-rule="evenodd" d="M244.682 116.153C248.735 115.321 258.628 107.977 260.332 109.468C262.854 111.674 260.606 118.447 257.956 121.816C253.005 128.113 248.905 130.267 238.771 133.087C233.473 134.561 227.745 137.516 221.586 141.952L220.774 127.667L235.037 119.847C237.038 112.247 239.431 108.423 242.214 108.376C244.352 107.383 240.628 116.986 244.682 116.153ZM220.133 83.6005C217.514 88.2397 214.969 93.237 216.303 94.6662C217.637 96.0955 220.964 94.0989 222.556 96.4736C223.617 98.0567 217.933 100.558 205.504 103.976L181.91 125.536L169.919 112.692L202.39 94.9428C207.79 88.5433 213.11 83.5732 218.35 80.0324C219.952 79.3652 222.752 78.9614 220.133 83.6005Z" fill="#ECB493"/>
        <path fill-rule="evenodd" clip-rule="evenodd" d="M154.106 108.738C165.479 108.618 180.646 106.221 196.828 95.9689L203.183 110.114C192.021 121.17 176.326 130.253 162.602 129.869C151.787 129.566 146.26 116.51 154.106 108.738Z" fill="#BC3D3D"/>
        <path fill-rule="evenodd" clip-rule="evenodd" d="M154.864 72.8247C156.296 91.1884 163.504 111.427 169.42 131.421C181.494 134.427 201.741 130.883 230.163 120.789C237.212 135.345 240.471 145.722 239.939 151.921C215.555 164.633 194.656 170.3 177.439 170.673C177.993 180.865 176.75 190.567 172.572 199.433C163.985 217.656 113.703 200.78 96.7971 204.101C86.2099 169.785 106.681 155.84 106.697 133.882C106.715 109.837 126.061 72.8247 128.907 72.8247H154.864Z" fill="url(#paint4_linear)"/>
    </g>
    <defs>
        <linearGradient id="paint2_linear" x1="181.169" y1="170.858" x2="181.169" y2="369.196" gradientUnits="userSpaceOnUse">
            <stop stop-color="#9DC8E6"/>
            <stop offset="1" stop-color="#C3E0F3"/>
        </linearGradient>
        <linearGradient id="paint3_linear" x1="115" y1="171" x2="31" y2="303" gradientUnits="userSpaceOnUse">
            <stop stop-color="#BBE4FF"/>
            <stop offset="1" stop-color="#E5F1F9"/>
        </linearGradient>
        <linearGradient id="paint4_linear" x1="166.876" y1="72.8247" x2="166.876" y2="208.048" gradientUnits="userSpaceOnUse">
            <stop stop-color="#FD6D6D"/>
            <stop offset="1" stop-color="#DE5959"/>
        </linearGradient>
        <radialGradient id="paint0_radial" cx="0" cy="0" r="1" gradientUnits="userSpaceOnUse" gradientTransform="translate(258.308 63.4) rotate(104.501) scale(73.1257 88.7641)">
            <stop stop-color="#FFD0A4"/>
            <stop offset="1" stop-color="#F69F4E"/>
        </radialGradient>
        <radialGradient id="paint1_radial" cx="0" cy="0" r="1" gradientUnits="userSpaceOnUse" gradientTransform="translate(238.568 54.2992) rotate(84.9825) scale(16.3418 70.4793)">
            <stop stop-color="#FFBFA4"/>
            <stop offset="1" stop-color="#F68A4E"/>
        </radialGradient>
        <clipPath id="clip0">
            <rect width="290" height="394" fill="white"/>
        </clipPath>
    </defs>
</svg>
