<svg viewBox="0 0 64 64" fill="none" xmlns="http://www.w3.org/2000/svg">
    <path d="M31.9998 19.18C24.9061 19.18 19.1811 24.905 19.1811 31.9987C19.1811 39.0925 24.9061 44.8175 31.9998 44.8175C39.0936 44.8175 44.8186 39.0925 44.8186 31.9987C44.8186 24.905 39.0936 19.18 31.9998 19.18ZM31.9998 40.33C27.4123 40.33 23.6686 36.5862 23.6686 31.9987C23.6686 27.4112 27.4123 23.6675 31.9998 23.6675C36.5873 23.6675 40.3311 27.4112 40.3311 31.9987C40.3311 36.5862 36.5873 40.33 31.9998 40.33ZM45.3436 15.6675C43.6873 15.6675 42.3498 17.005 42.3498 18.6612C42.3498 20.3175 43.6873 21.655 45.3436 21.655C46.9998 21.655 48.3373 20.3237 48.3373 18.6612C48.3378 18.268 48.2607 17.8784 48.1104 17.515C47.9602 17.1516 47.7397 16.8213 47.4616 16.5432C47.1835 16.2651 46.8532 16.0446 46.4898 15.8944C46.1264 15.7441 45.7368 15.667 45.3436 15.6675ZM56.9873 31.9987C56.9873 28.5487 57.0186 25.13 56.8248 21.6862C56.6311 17.6862 55.7186 14.1362 52.7936 11.2112C49.8623 8.27998 46.3186 7.37373 42.3186 7.17998C38.8686 6.98623 35.4498 7.01748 32.0061 7.01748C28.5561 7.01748 25.1373 6.98623 21.6936 7.17998C17.6936 7.37373 14.1436 8.28623 11.2186 11.2112C8.28731 14.1425 7.38106 17.6862 7.18731 21.6862C6.99356 25.1362 7.02481 28.555 7.02481 31.9987C7.02481 35.4425 6.99356 38.8675 7.18731 42.3112C7.38106 46.3112 8.29356 49.8612 11.2186 52.7862C14.1498 55.7175 17.6936 56.6237 21.6936 56.8175C25.1436 57.0112 28.5623 56.98 32.0061 56.98C35.4561 56.98 38.8748 57.0112 42.3186 56.8175C46.3186 56.6237 49.8686 55.7112 52.7936 52.7862C55.7248 49.855 56.6311 46.3112 56.8248 42.3112C57.0248 38.8675 56.9873 35.4487 56.9873 31.9987ZM51.4873 46.7362C51.0311 47.8737 50.4811 48.7237 49.5998 49.5987C48.7186 50.48 47.8748 51.03 46.7373 51.4862C43.4498 52.7925 35.6436 52.4987 31.9998 52.4987C28.3561 52.4987 20.5436 52.7925 17.2561 51.4925C16.1186 51.0362 15.2686 50.4862 14.3936 49.605C13.5123 48.7237 12.9623 47.88 12.5061 46.7425C11.2061 43.4487 11.4998 35.6425 11.4998 31.9987C11.4998 28.355 11.2061 20.5425 12.5061 17.255C12.9623 16.1175 13.5123 15.2675 14.3936 14.3925C15.2748 13.5175 16.1186 12.9612 17.2561 12.505C20.5436 11.205 28.3561 11.4987 31.9998 11.4987C35.6436 11.4987 43.4561 11.205 46.7436 12.505C47.8811 12.9612 48.7311 13.5112 49.6061 14.3925C50.4873 15.2737 51.0373 16.1175 51.4936 17.255C52.7936 20.5425 52.4998 28.355 52.4998 31.9987C52.4998 35.6425 52.7936 43.4487 51.4873 46.7362Z" fill="#AD3333"/>
</svg>
