<svg width="64" height="64" viewBox="0 0 64 64" fill="none" xmlns="http://www.w3.org/2000/svg">
    <path d="M52.9813 7H11.0188C8.8 7 7 8.8 7 11.0188V52.9813C7 55.2 8.8 57 11.0188 57H52.9813C55.2 57 57 55.2 57 52.9813V11.0188C57 8.8 55.2 7 52.9813 7ZM52.9813 53C24.9938 52.9938 11 52.9875 11 52.9813C11.0062 24.9938 11.0125 11 11.0188 11C39.0062 11.0062 53 11.0125 53 11.0188C52.9938 39.0062 52.9875 53 52.9813 53ZM14.4125 25.7437H21.8312V49.6063H14.4125V25.7437ZM18.125 22.4813C20.4937 22.4813 22.425 20.5562 22.425 18.1812C22.425 17.6166 22.3138 17.0574 22.0977 16.5357C21.8816 16.014 21.5649 15.54 21.1656 15.1407C20.7663 14.7414 20.2922 14.4247 19.7705 14.2086C19.2488 13.9925 18.6897 13.8813 18.125 13.8813C17.5603 13.8813 17.0012 13.9925 16.4795 14.2086C15.9578 14.4247 15.4837 14.7414 15.0844 15.1407C14.6851 15.54 14.3684 16.014 14.1523 16.5357C13.9362 17.0574 13.825 17.6166 13.825 18.1812C13.8187 20.5562 15.7437 22.4813 18.125 22.4813ZM33.8937 37.8C33.8937 34.6875 34.4875 31.675 38.3438 31.675C42.1437 31.675 42.2 35.2313 42.2 38V49.6063H49.6125V36.5187C49.6125 30.0938 48.225 25.15 40.7188 25.15C37.1125 25.15 34.6938 27.1313 33.7 29.0063H33.6V25.7437H26.4813V49.6063H33.8937V37.8Z" fill="#AD3333"/>
</svg>
