<svg width="auto" height="auto" viewBox="0 0 140 171" fill="none" xmlns="http://www.w3.org/2000/svg">
  <circle opacity="0.3" cx="69.8601" cy="59.6401" r="48.02" fill="#FFBC57"/>
  <circle opacity="0.3" cx="69.86" cy="59.64" r="59.64" fill="#FFBC57"/>
  <circle opacity="0.3" cx="69.86" cy="59.6401" r="25.06" fill="#FFBC57"/>
  <path opacity="0.8" d="M48.3359 60.9277C49.8755 58.2611 53.7245 58.2611 55.2641 60.9277L93.196 126.628C94.7356 129.294 92.8111 132.628 89.7319 132.628H13.8681C10.7889 132.628 8.86439 129.294 10.404 126.628L48.3359 60.9277Z" fill="url(#paint0_linear)"/>
  <path opacity="0.8" d="M84.7358 60.9277C86.2754 58.2611 90.1244 58.2611 91.664 60.9277L129.596 126.628C131.136 129.294 129.211 132.628 126.132 132.628H50.268C47.1888 132.628 45.2643 129.294 46.8039 126.628L84.7358 60.9277Z" fill="url(#paint1_linear)"/>
  <path d="M19.8906 154.086H21.3438V165H19.7734V156.508L16.4141 160.727H16.125L12.7344 156.508V165H11.1719V154.086H12.6406L16.2734 158.57L19.8906 154.086ZM23.7188 154.086H25.2812V165H23.7188V154.086ZM36.375 154.086H37.8594V165H36.5156L29.2188 156.602V165H27.75V154.086H29.0156L36.375 162.555V154.086ZM47.8984 154.086H49.4609V165H47.8984V160.25H41.7656V165H40.2031V154.086H41.7656V158.805H47.8984V154.086ZM57.2344 153.93C58.9219 153.93 60.3255 154.464 61.4453 155.531C62.5703 156.599 63.1328 157.938 63.1328 159.547C63.1328 161.156 62.5651 162.49 61.4297 163.547C60.2995 164.599 58.8724 165.125 57.1484 165.125C55.5026 165.125 54.1302 164.599 53.0312 163.547C51.9375 162.49 51.3906 161.167 51.3906 159.578C51.3906 157.948 51.9427 156.599 53.0469 155.531C54.151 154.464 55.5469 153.93 57.2344 153.93ZM57.2969 155.414C56.0469 155.414 55.0182 155.805 54.2109 156.586C53.4089 157.367 53.0078 158.365 53.0078 159.578C53.0078 160.755 53.4115 161.734 54.2188 162.516C55.026 163.297 56.0365 163.688 57.25 163.688C58.4688 163.688 59.4844 163.289 60.2969 162.492C61.1146 161.695 61.5234 160.703 61.5234 159.516C61.5234 158.359 61.1146 157.388 60.2969 156.602C59.4844 155.81 58.4844 155.414 57.2969 155.414Z" fill="#AD3333"/>
  <path d="M74.4531 162.469V164.188C73.3073 164.812 71.9844 165.125 70.4844 165.125C69.2656 165.125 68.2318 164.88 67.3828 164.391C66.5339 163.901 65.862 163.227 65.3672 162.367C64.8724 161.508 64.625 160.578 64.625 159.578C64.625 157.99 65.1901 156.654 66.3203 155.57C67.4557 154.487 68.8542 153.945 70.5156 153.945C71.6615 153.945 72.9349 154.245 74.3359 154.844V156.523C73.0599 155.794 71.8125 155.43 70.5938 155.43C69.3438 155.43 68.3047 155.826 67.4766 156.617C66.6536 157.404 66.2422 158.391 66.2422 159.578C66.2422 160.776 66.6484 161.76 67.4609 162.531C68.2734 163.302 69.3125 163.688 70.5781 163.688C71.901 163.688 73.1927 163.281 74.4531 162.469ZM81.7344 153.93C83.4219 153.93 84.8255 154.464 85.9453 155.531C87.0703 156.599 87.6328 157.938 87.6328 159.547C87.6328 161.156 87.0651 162.49 85.9297 163.547C84.7995 164.599 83.3724 165.125 81.6484 165.125C80.0026 165.125 78.6302 164.599 77.5312 163.547C76.4375 162.49 75.8906 161.167 75.8906 159.578C75.8906 157.948 76.4427 156.599 77.5469 155.531C78.651 154.464 80.0469 153.93 81.7344 153.93ZM81.7969 155.414C80.5469 155.414 79.5182 155.805 78.7109 156.586C77.9089 157.367 77.5078 158.365 77.5078 159.578C77.5078 160.755 77.9115 161.734 78.7188 162.516C79.526 163.297 80.5365 163.688 81.75 163.688C82.9688 163.688 83.9844 163.289 84.7969 162.492C85.6146 161.695 86.0234 160.703 86.0234 159.516C86.0234 158.359 85.6146 157.388 84.7969 156.602C83.9844 155.81 82.9844 155.414 81.7969 155.414ZM96.4531 154.086H98.0078L93.3984 165.047H93.0469L88.3438 154.086H89.9141L93.1953 161.75L96.4531 154.086ZM99.2344 154.086H100.797V165H99.2344V154.086ZM103.234 164.984V154.086H106.914C108.398 154.086 109.573 154.31 110.438 154.758C111.302 155.201 111.99 155.854 112.5 156.719C113.01 157.583 113.266 158.526 113.266 159.547C113.266 160.276 113.125 160.974 112.844 161.641C112.562 162.307 112.161 162.893 111.641 163.398C111.109 163.919 110.492 164.312 109.789 164.578C109.378 164.74 109 164.849 108.656 164.906C108.312 164.958 107.656 164.984 106.688 164.984H103.234ZM106.75 155.477H104.797V163.594H106.797C107.578 163.594 108.185 163.542 108.617 163.438C109.049 163.328 109.409 163.193 109.695 163.031C109.987 162.865 110.253 162.661 110.492 162.422C111.263 161.641 111.648 160.654 111.648 159.461C111.648 158.289 111.253 157.333 110.461 156.594C110.169 156.318 109.833 156.091 109.453 155.914C109.078 155.737 108.721 155.62 108.383 155.562C108.044 155.505 107.5 155.477 106.75 155.477ZM117.25 154.086H118.812V165H117.25V154.086ZM125.008 165.125L124.047 163.992C124.854 163.482 125.56 162.865 126.164 162.141C126.768 161.411 127.172 160.664 127.375 159.898C126.88 160.206 126.299 160.359 125.633 160.359C124.799 160.359 124.083 160.049 123.484 159.43C122.891 158.81 122.594 158.065 122.594 157.195C122.594 156.289 122.911 155.521 123.547 154.891C124.182 154.26 124.958 153.945 125.875 153.945C126.906 153.945 127.75 154.318 128.406 155.062C129.062 155.807 129.391 156.763 129.391 157.93C129.391 159.253 128.979 160.591 128.156 161.945C127.333 163.294 126.284 164.354 125.008 165.125ZM127.68 158.344C127.742 157.927 127.773 157.656 127.773 157.531C127.773 156.901 127.596 156.385 127.242 155.984C126.893 155.583 126.443 155.383 125.891 155.383C125.385 155.383 124.966 155.555 124.633 155.898C124.305 156.237 124.141 156.664 124.141 157.18C124.141 157.654 124.32 158.062 124.68 158.406C125.039 158.75 125.469 158.922 125.969 158.922C126.552 158.922 127.122 158.729 127.68 158.344Z" fill="#D6855C"/>
  <defs>
    <linearGradient id="paint0_linear" x1="51.8" y1="54.9277" x2="51.8" y2="158.528" gradientUnits="userSpaceOnUse">
      <stop stop-color="#D14A4A"/>
      <stop offset="1" stop-color="#990000"/>
    </linearGradient>
    <linearGradient id="paint1_linear" x1="88.1999" y1="54.9277" x2="88.1999" y2="158.528" gradientUnits="userSpaceOnUse">
      <stop stop-color="#FF8F57"/>
      <stop offset="1" stop-color="#CC6633"/>
    </linearGradient>
  </defs>
</svg>
